<?xml version="1.0" encoding="UTF-8" standalone="no"?>
<svg
   xmlns:dc="http://purl.org/dc/elements/1.1/"
   xmlns:cc="http://creativecommons.org/ns#"
   xmlns:rdf="http://www.w3.org/1999/02/22-rdf-syntax-ns#"
   xmlns:svg="http://www.w3.org/2000/svg"
   xmlns="http://www.w3.org/2000/svg"
   xmlns:sodipodi="http://sodipodi.sourceforge.net/DTD/sodipodi-0.dtd"
   xmlns:inkscape="http://www.inkscape.org/namespaces/inkscape"
   inkscape:version="1.0beta2 (2b71d25, 2019-12-03)"
   height="219.27798"
   width="277.61353"
   sodipodi:docname="app-development.svg"
   id="svg285"
   version="1.1"
   viewBox="0 0 277.61353 219.27798">
  <metadata
     id="metadata289">
    <rdf:RDF>
      <cc:Work
         rdf:about="">
        <dc:format>image/svg+xml</dc:format>
        <dc:type
           rdf:resource="http://purl.org/dc/dcmitype/StillImage" />
        <dc:title></dc:title>
      </cc:Work>
    </rdf:RDF>
  </metadata>
  <sodipodi:namedview
     inkscape:current-layer="svg285"
     inkscape:window-maximized="0"
     inkscape:window-y="23"
     inkscape:window-x="0"
     inkscape:cy="109.31396"
     inkscape:cx="139.87657"
     inkscape:zoom="1.6175"
     fit-margin-bottom="0"
     fit-margin-right="0"
     fit-margin-left="0"
     fit-margin-top="0"
     showgrid="false"
     id="namedview287"
     inkscape:window-height="855"
     inkscape:window-width="1440"
     inkscape:pageshadow="2"
     inkscape:pageopacity="0"
     guidetolerance="10"
     gridtolerance="10"
     objecttolerance="10"
     borderopacity="1"
     inkscape:document-rotation="0"
     bordercolor="#666666"
     pagecolor="#ffffff" />
  <defs
     id="defs12">
    <style
       id="style10">.cls-1{fill:#e9e9e9;}.cls-2,.cls-3{fill:none;}.cls-2{stroke:#0052ce;stroke-miterlimit:10;stroke-width:0.5px;}.cls-4{fill:#4c65ba;}.cls-5{fill:#0052ce;}.cls-12,.cls-15,.cls-6,.cls-9{fill:#fff;}.cls-13,.cls-14,.cls-7,.cls-8{fill:#599af2;}.cls-10,.cls-8{opacity:0.36;}.cls-9{opacity:0.43;}.cls-11{fill:#43c4f0;}.cls-12{opacity:0.39;}.cls-13{opacity:0.32;}.cls-14{opacity:0.42;}.cls-15{opacity:0.38;}</style>
  </defs>
  <g
     transform="translate(-60.123427,-90.686043)"
     id="App">
    <path
       inkscape:connector-curvature="0"
       id="path14"
       d="m 315.76,266.09 c 24.6,-23.49 30.48,-71.43 7.69,-104.76 -19,-27.79 -54,-56.37 -98,-64.7 -44,-8.33 -82.7,-8.32 -99.4,2.68 -13.66,9 -7.31,21.56 -3,32.22 5.72,14.23 6.56,25.52 -17,46.2 -26.92,23.59 -34.19,32.45 -35.54,55.27 -1.09,18.56 14.4,43.52 34.73,47.1 28.31,5 38.81,-8.18 66.5,-17 22.22,-7.12 37.62,-3.79 57.76,9.84 20.14,13.63 50.16,27.61 86.26,-6.85 z"
       class="cls-1" />
    <path
       inkscape:connector-curvature="0"
       id="path16"
       d="m 313.18,286.38 c 25.35,-25.4 31.41,-77.27 7.92,-113.33 -19.57,-30.06 -55.62,-61 -101.05,-70 -45.43,-9 -85.22,-9 -102.44,2.9 -14.08,9.75 -7.53,23.32 -3.12,34.85 5.9,15.39 6.77,27.62 -17.49,50 -27.69,25.53 -35.19,35.11 -36.57,59.8 -1.13,20.07 14.84,47.08 35.79,51 29.17,5.39 40,-8.84 68.53,-18.44 22.89,-7.69 38.77,-4.09 59.53,10.66 20.76,14.75 51.72,29.84 88.9,-7.44 z"
       class="cls-2" />
    <polygon
       id="polygon18"
       points="114.68,116.38 113.96,117.2 114.68,119.66 "
       class="cls-3" />
    <polygon
       id="polygon20"
       points="114.03,277.11 114.75,277.93 114.75,274.65 "
       class="cls-3" />
    <path
       inkscape:connector-curvature="0"
       id="path22"
       d="m 114.68,102.27 v 17.39 39.17 76.65 39.17 12.81 a 10.08,10.08 0 0 0 10,10 h 7.32 78.8 a 10,10 0 0 0 10,-10 l -0.08,-185.19 a 10,10 0 0 0 -10.05,-10 h -86 a 10,10 0 0 0 -9.99,10 z"
       class="cls-4" />
    <path
       inkscape:connector-curvature="0"
       id="path24"
       d="m 115.41,105.78 v 16.82 37.9 74.15 50.29 a 9.71,9.71 0 0 0 6.44,9.09 9.93,9.93 0 0 0 3.47,0.62 h 7 77.72 a 10,10 0 0 0 5.59,-1.71 9.66,9.66 0 0 0 4.31,-8 L 220,105.73 A 9.62,9.62 0 0 0 216.46,98.3 10,10 0 0 0 210.08,96 h -84.77 a 9.81,9.81 0 0 0 -9.9,9.78 z"
       class="cls-5" />
    <rect
       id="rect26"
       rx="2.4100001"
       height="153.64"
       width="94.959999"
       y="118.02"
       x="120.26"
       class="cls-6" />
    <path
       inkscape:connector-curvature="0"
       id="path28"
       d="M 215.19,120.34 V 130 h -95 v -9.77 a 2.31,2.31 0 0 1 2.3,-2.31 h 90.23 a 2.44,2.44 0 0 1 2.47,2.42 z"
       class="cls-7" />
    <path
       inkscape:connector-curvature="0"
       id="path30"
       d="m 203.46,122.61 a 0.35,0.35 0 0 1 0,-0.7 h 7.13 a 0.35,0.35 0 0 1 0.35,0.35 0.35,0.35 0 0 1 -0.35,0.35 z"
       class="cls-6" />
    <path
       inkscape:connector-curvature="0"
       id="path32"
       d="m 203.46,124.43 a 0.35,0.35 0 0 1 0,-0.7 h 7.13 a 0.35,0.35 0 0 1 0.35,0.35 0.35,0.35 0 0 1 -0.35,0.35 z"
       class="cls-6" />
    <path
       inkscape:connector-curvature="0"
       id="path34"
       d="m 203.46,126.25 a 0.35,0.35 0 0 1 0,-0.7 h 7.13 a 0.35,0.35 0 0 1 0.35,0.35 0.35,0.35 0 0 1 -0.35,0.35 z"
       class="cls-6" />
    <path
       inkscape:connector-curvature="0"
       id="path36"
       d="m 128.72,127.41 a 0.35,0.35 0 0 1 -0.25,-0.1 l -2.59,-2.59 a 0.58,0.58 0 0 1 0,-0.81 l 2.49,-2.49 a 0.36,0.36 0 0 1 0.49,0 0.35,0.35 0 0 1 0,0.5 l -2.39,2.4 2.49,2.49 a 0.35,0.35 0 0 1 0,0.5 0.31,0.31 0 0 1 -0.24,0.1 z"
       class="cls-6" />
    <path
       inkscape:connector-curvature="0"
       id="path38"
       d="m 167.79,109.09 a 2.57,2.57 0 1 1 0,-5.14 v 0 a 2.57,2.57 0 1 1 0,5.14 z m 0,-4 v 0 a 1.5,1.5 0 1 0 0,3 v 0 a 1.47,1.47 0 0 0 1.48,-1.48 1.47,1.47 0 0 0 -1.48,-1.48 z"
       class="cls-6" />
    <path
       inkscape:connector-curvature="0"
       id="path40"
       d="m 165.34,290.15 a 1.65,1.65 0 0 1 -1.65,-1.64 v -4.88 a 1.66,1.66 0 0 1 1.65,-1.65 h 4.87 a 1.65,1.65 0 0 1 1.65,1.65 v 4.87 a 1.65,1.65 0 0 1 -1.65,1.65 z m 4.87,-7.47 h -4.87 a 1,1 0 0 0 -1,0.95 v 4.88 a 0.94,0.94 0 0 0 0.94,0.94 h 4.88 a 0.94,0.94 0 0 0 0.94,-0.95 v -4.87 a 1,1 0 0 0 -0.89,-0.95 z"
       class="cls-6" />
    <path
       inkscape:connector-curvature="0"
       id="path42"
       d="m 136,283.48 a 0.35,0.35 0 0 1 -0.35,-0.35 0.34,0.34 0 0 1 0.35,-0.35 h 4.69 a 0.36,0.36 0 0 1 0,0.71 z"
       class="cls-6" />
    <path
       inkscape:connector-curvature="0"
       id="path44"
       d="m 136,286 a 0.34,0.34 0 0 1 -0.35,-0.35 0.35,0.35 0 0 1 0.35,-0.35 h 4.69 a 0.35,0.35 0 0 1 0,0.7 z"
       class="cls-6" />
    <path
       inkscape:connector-curvature="0"
       id="path46"
       d="m 136,288.58 a 0.35,0.35 0 0 1 -0.35,-0.35 0.34,0.34 0 0 1 0.35,-0.35 h 4.69 a 0.35,0.35 0 0 1 0.35,0.35 0.35,0.35 0 0 1 -0.35,0.35 z"
       class="cls-6" />
    <path
       inkscape:connector-curvature="0"
       id="path48"
       d="m 200.75,290.14 a 0.39,0.39 0 0 1 -0.25,-0.1 l -3.68,-3.69 3.59,-3.59 a 0.35,0.35 0 0 1 0.49,0.49 l -3.09,3.1 3.19,3.19 a 0.35,0.35 0 0 1 0,0.5 0.39,0.39 0 0 1 -0.25,0.1 z"
       class="cls-6" />
    <rect
       id="rect50"
       height="31.049999"
       width="94.809998"
       y="130.16"
       x="120.38"
       class="cls-8" />
    <rect
       id="rect52"
       rx="0.99000001"
       height="7.6999998"
       width="36.02"
       y="136.44"
       x="128.14"
       class="cls-9" />
    <rect
       id="rect54"
       rx="0.99000001"
       height="3.8499999"
       width="54.720001"
       y="148.45"
       x="128.14"
       class="cls-9" />
    <path
       inkscape:connector-curvature="0"
       id="path56"
       d="m 203.52,151.65 a 7.29,7.29 0 0 1 0,-14.57 v 0 a 7.29,7.29 0 0 1 7.28,7.28 v 0 a 7.29,7.29 0 0 1 -7.28,7.29 z m 0,-13.16 v 0 a 5.88,5.88 0 1 0 0,11.76 v 0 a 5.89,5.89 0 0 0 5.88,-5.89 v 0 a 5.89,5.89 0 0 0 -5.88,-5.87 z"
       class="cls-9" />
    <rect
       id="rect58"
       rx="3.1900001"
       height="22.07"
       width="22.07"
       y="172.48"
       x="128.78"
       class="cls-4" />
    <g
       id="g62"
       class="cls-10">
      <path
         inkscape:connector-curvature="0"
         id="path60"
         d="m 144.57,183.63 a 4.76,4.76 0 1 1 -4.76,-4.77 4.75,4.75 0 0 1 4.76,4.77 z"
         class="cls-7" />
    </g>
    <rect
       id="rect64"
       rx="0.80000001"
       height="3.96"
       width="14.01"
       y="175.92"
       x="154.69"
       class="cls-5" />
    <path
       inkscape:connector-curvature="0"
       id="path66"
       d="m 154.69,186 a 0.7,0.7 0 0 1 0,-1.4 h 23.91 a 0.7,0.7 0 0 1 0,1.4 z"
       class="cls-5" />
    <path
       inkscape:connector-curvature="0"
       id="path68"
       d="m 154.69,191 a 0.7,0.7 0 0 1 0,-1.4 h 39 v 0 a 0.71,0.71 0 0 1 0,1.41 z"
       class="cls-5" />
    <path
       inkscape:connector-curvature="0"
       id="path70"
       d="m 183.93,186 a 0.7,0.7 0 1 1 0,-1.4 h 23.9 a 0.7,0.7 0 1 1 0,1.4 z"
       class="cls-5" />
    <rect
       id="rect72"
       rx="3.1900001"
       height="22.07"
       width="22.07"
       y="236.69"
       x="128.8"
       class="cls-7" />
    <path
       inkscape:connector-curvature="0"
       id="path74"
       d="m 144.6,247.84 a 4.76,4.76 0 1 1 -4.76,-4.77 4.76,4.76 0 0 1 4.76,4.77 z"
       class="cls-5" />
    <rect
       id="rect76"
       rx="0.80000001"
       height="3.96"
       width="14.01"
       y="240.13"
       x="154.72"
       class="cls-5" />
    <path
       inkscape:connector-curvature="0"
       id="path78"
       d="m 154.72,250.17 a 0.7,0.7 0 0 1 0,-1.4 h 23.9 a 0.7,0.7 0 1 1 0,1.4 z"
       class="cls-5" />
    <path
       inkscape:connector-curvature="0"
       id="path80"
       d="m 154.72,255.17 a 0.7,0.7 0 0 1 0,-1.4 h 39 v 0 a 0.71,0.71 0 0 1 0,1.41 z"
       class="cls-5" />
    <path
       inkscape:connector-curvature="0"
       id="path82"
       d="m 184,250.16 a 0.7,0.7 0 0 1 0,-1.4 h 23.91 a 0.7,0.7 0 1 1 0,1.4 z"
       class="cls-5" />
    <rect
       id="rect84"
       rx="3.1900001"
       height="22.07"
       width="22.07"
       y="204.50999"
       x="128.78999"
       class="cls-11" />
    <circle
       id="circle86"
       r="4.7600002"
       cy="215.66"
       cx="139.83"
       class="cls-9" />
    <rect
       id="rect88"
       rx="0.80000001"
       height="3.96"
       width="14.01"
       y="207.95"
       x="154.7"
       class="cls-5" />
    <path
       inkscape:connector-curvature="0"
       id="path90"
       d="m 154.71,218 a 0.7,0.7 0 1 1 0,-1.4 h 11 a 0.71,0.71 0 0 1 0,1.41 z"
       class="cls-5" />
    <path
       inkscape:connector-curvature="0"
       id="path92"
       d="m 154.71,223 a 0.7,0.7 0 1 1 0,-1.4 h 22.68 a 0.7,0.7 0 1 1 0,1.4 z"
       class="cls-5" />
    <path
       inkscape:connector-curvature="0"
       id="path94"
       d="m 170.39,218 a 0.7,0.7 0 0 1 0,-1.4 h 22.08 a 0.7,0.7 0 1 1 0,1.4 z"
       class="cls-5" />
    <path
       inkscape:connector-curvature="0"
       id="path96"
       d="m 196.58,218 a 0.7,0.7 0 1 1 0,-1.4 h 11 a 0.7,0.7 0 1 1 0,1.4 z"
       class="cls-5" />
    <rect
       id="rect98"
       transform="rotate(-0.7,261.13881,263.52531)"
       rx="2.4100001"
       height="80.330002"
       width="49.650002"
       y="224.81"
       x="238.00999"
       class="cls-12" />
    <rect
       id="rect100"
       transform="rotate(-0.7,261.13881,263.52531)"
       rx="2.4100001"
       height="80.330002"
       width="49.650002"
       y="224.81"
       x="238.00999"
       class="cls-11" />
    <path
       inkscape:connector-curvature="0"
       id="path102"
       d="m 287.37,226.89 v 3.89 l -49.64,0.6 -0.05,-4 a 2.3,2.3 0 0 1 2.28,-2.33 l 44.92,-0.55 a 2.42,2.42 0 0 1 2.49,2.39 z"
       class="cls-11" />
    <path
       inkscape:connector-curvature="0"
       id="path104"
       d="m 241.14,229.11 a 1,1 0 1 1 1,-1 1,1 0 0 1 -1,1 z m 0,-1.63 a 0.61,0.61 0 1 0 0.62,0.6 0.61,0.61 0 0 0 -0.64,-0.6 z"
       class="cls-6" />
    <path
       inkscape:connector-curvature="0"
       id="path106"
       d="m 244.55,229.09 a 1,1 0 1 1 1,-1 1,1 0 0 1 -1,1 z m 0,-1.64 a 0.62,0.62 0 0 0 0,1.23 0.63,0.63 0 0 0 0.61,-0.62 0.62,0.62 0 0 0 -0.62,-0.61 z"
       class="cls-6" />
    <path
       inkscape:connector-curvature="0"
       id="path108"
       d="m 247.87,229.06 a 1,1 0 1 1 0,-2 1,1 0 0 1 0,2 z m 0,-1.63 a 0.61,0.61 0 0 0 -0.61,0.61 0.61,0.61 0 0 0 0.62,0.61 0.61,0.61 0 0 0 0,-1.22 z"
       class="cls-6" />
    <path
       inkscape:connector-curvature="0"
       id="path110"
       d="m 265,238.48 -22.94,0.17 a 0.42,0.42 0 0 1 -0.42,-0.41 0.41,0.41 0 0 1 0.41,-0.41 l 22.94,-0.17 a 0.41,0.41 0 0 1 0.41,0.41 0.41,0.41 0 0 1 -0.4,0.41 z"
       class="cls-6" />
    <path
       inkscape:connector-curvature="0"
       id="path112"
       d="m 272.61,238.42 h -4.76 a 0.41,0.41 0 0 1 -0.41,-0.41 0.41,0.41 0 0 1 0.41,-0.41 h 4.76 a 0.41,0.41 0 0 1 0,0.82 z"
       class="cls-6" />
    <path
       inkscape:connector-curvature="0"
       id="path114"
       d="m 265.11,257.52 -22.94,0.18 a 0.41,0.41 0 0 1 0,-0.82 l 22.94,-0.17 a 0.41,0.41 0 1 1 0,0.81 z"
       class="cls-6" />
    <path
       inkscape:connector-curvature="0"
       id="path116"
       d="M 272.76,257.46 H 268 a 0.41,0.41 0 1 1 0,-0.82 h 4.76 a 0.4,0.4 0 0 1 0.41,0.4 0.4,0.4 0 0 1 -0.41,0.42 z"
       class="cls-6" />
    <path
       inkscape:connector-curvature="0"
       id="path118"
       d="m 265,247.57 -23,0.17 a 0.41,0.41 0 0 1 0,-0.82 l 22.94,-0.17 a 0.41,0.41 0 0 1 0.41,0.41 0.41,0.41 0 0 1 -0.35,0.41 z"
       class="cls-6" />
    <path
       inkscape:connector-curvature="0"
       id="path120"
       d="m 272.68,247.51 h -4.76 a 0.41,0.41 0 0 1 -0.41,-0.41 0.41,0.41 0 0 1 0.41,-0.41 h 4.76 a 0.41,0.41 0 1 1 0,0.82 z"
       class="cls-6" />
    <path
       inkscape:connector-curvature="0"
       id="path122"
       d="m 280.52,247.45 h -4.76 a 0.41,0.41 0 0 1 -0.41,-0.41 0.4,0.4 0 0 1 0.4,-0.41 h 4.77 a 0.41,0.41 0 0 1 0,0.82 z"
       class="cls-6" />
    <path
       inkscape:connector-curvature="0"
       id="path124"
       d="m 257.35,243 -15.29,0.11 a 0.4,0.4 0 0 1 -0.41,-0.4 0.4,0.4 0 0 1 0.4,-0.41 l 15.3,-0.12 a 0.41,0.41 0 0 1 0,0.82 z"
       class="cls-6" />
    <path
       inkscape:connector-curvature="0"
       id="path126"
       d="m 266.88,242.94 -6.71,0.05 a 0.41,0.41 0 0 1 -0.41,-0.41 0.4,0.4 0 0 1 0.4,-0.41 h 6.71 a 0.4,0.4 0 0 1 0.41,0.4 0.42,0.42 0 0 1 -0.4,0.37 z"
       class="cls-6" />
    <path
       inkscape:connector-curvature="0"
       id="path128"
       d="m 267,252.51 -15.3,0.12 a 0.41,0.41 0 0 1 0,-0.82 l 15.29,-0.11 a 0.4,0.4 0 0 1 0.41,0.4 0.4,0.4 0 0 1 -0.4,0.41 z"
       class="cls-6" />
    <path
       inkscape:connector-curvature="0"
       id="path130"
       d="m 248.84,252.65 h -6.71 a 0.41,0.41 0 0 1 -0.41,-0.4 0.42,0.42 0 0 1 0.41,-0.42 h 6.71 a 0.41,0.41 0 0 1 0.41,0.41 0.41,0.41 0 0 1 -0.41,0.41 z"
       class="cls-6" />
    <path
       inkscape:connector-curvature="0"
       id="path132"
       d="m 265.16,263.94 -22.94,0.18 a 0.41,0.41 0 0 1 0,-0.82 l 22.94,-0.17 a 0.41,0.41 0 0 1 0.42,0.4 0.41,0.41 0 0 1 -0.42,0.41 z"
       class="cls-6" />
    <path
       inkscape:connector-curvature="0"
       id="path134"
       d="m 272.81,263.89 h -4.76 a 0.41,0.41 0 1 1 0,-0.82 h 4.76 a 0.4,0.4 0 0 1 0.41,0.4 0.42,0.42 0 0 1 -0.41,0.42 z"
       class="cls-6" />
    <path
       inkscape:connector-curvature="0"
       id="path136"
       d="m 265.3,283 -22.94,0.17 a 0.41,0.41 0 0 1 -0.41,-0.4 0.41,0.41 0 0 1 0.41,-0.41 l 22.94,-0.18 a 0.41,0.41 0 0 1 0,0.82 z"
       class="cls-6" />
    <path
       inkscape:connector-curvature="0"
       id="path138"
       d="m 273,282.93 h -4.76 a 0.41,0.41 0 0 1 -0.41,-0.41 0.41,0.41 0 0 1 0.4,-0.41 h 4.76 a 0.42,0.42 0 0 1 0.42,0.41 0.41,0.41 0 0 1 -0.41,0.41 z"
       class="cls-6" />
    <path
       inkscape:connector-curvature="0"
       id="path140"
       d="m 265.23,273 -22.94,0.18 a 0.41,0.41 0 0 1 0,-0.82 l 22.94,-0.17 a 0.41,0.41 0 1 1 0,0.81 z"
       class="cls-6" />
    <path
       inkscape:connector-curvature="0"
       id="path142"
       d="m 272.88,273 h -4.77 a 0.41,0.41 0 0 1 -0.41,-0.4 0.42,0.42 0 0 1 0.41,-0.42 h 4.76 a 0.4,0.4 0 0 1 0.41,0.4 0.42,0.42 0 0 1 -0.4,0.42 z"
       class="cls-6" />
    <path
       inkscape:connector-curvature="0"
       id="path144"
       d="M 280.72,272.92 276,273 a 0.41,0.41 0 0 1 -0.41,-0.4 0.42,0.42 0 0 1 0.41,-0.42 h 4.76 a 0.41,0.41 0 0 1 0.41,0.4 0.42,0.42 0 0 1 -0.45,0.34 z"
       class="cls-6" />
    <path
       inkscape:connector-curvature="0"
       id="path146"
       d="m 257.55,268.47 -15.3,0.12 a 0.41,0.41 0 0 1 0,-0.82 l 15.29,-0.11 a 0.4,0.4 0 0 1 0.41,0.4 0.4,0.4 0 0 1 -0.4,0.41 z"
       class="cls-6" />
    <path
       inkscape:connector-curvature="0"
       id="path148"
       d="m 267.07,268.4 -6.71,0.05 a 0.41,0.41 0 0 1 0,-0.81 l 6.71,-0.06 a 0.41,0.41 0 0 1 0.41,0.41 0.39,0.39 0 0 1 -0.41,0.41 z"
       class="cls-6" />
    <path
       inkscape:connector-curvature="0"
       id="path150"
       d="m 267.14,278 -15.29,0.12 a 0.41,0.41 0 0 1 -0.41,-0.41 0.4,0.4 0 0 1 0.4,-0.41 l 15.3,-0.12 a 0.41,0.41 0 1 1 0,0.82 z"
       class="cls-6" />
    <path
       inkscape:connector-curvature="0"
       id="path152"
       d="m 249,278.12 -6.71,0.05 a 0.41,0.41 0 0 1 0,-0.82 L 249,277.3 a 0.41,0.41 0 0 1 0,0.82 z"
       class="cls-6" />
    <path
       inkscape:connector-curvature="0"
       id="path154"
       d="m 265.35,288.88 -22.94,0.17 a 0.4,0.4 0 0 1 -0.41,-0.4 0.41,0.41 0 0 1 0.4,-0.42 l 22.94,-0.17 a 0.41,0.41 0 0 1 0,0.82 z"
       class="cls-6" />
    <path
       inkscape:connector-curvature="0"
       id="path156"
       d="m 273,288.82 h -4.77 a 0.41,0.41 0 0 1 -0.41,-0.41 0.41,0.41 0 0 1 0.41,-0.41 h 4.76 a 0.41,0.41 0 0 1 0.41,0.41 0.41,0.41 0 0 1 -0.4,0.41 z"
       class="cls-6" />
    <path
       inkscape:connector-curvature="0"
       id="path158"
       d="m 273.09,300.85 h -4.76 a 0.41,0.41 0 0 1 -0.42,-0.4 0.42,0.42 0 0 1 0.41,-0.42 h 4.76 a 0.4,0.4 0 0 1 0.41,0.4 0.42,0.42 0 0 1 -0.4,0.42 z"
       class="cls-6" />
    <path
       inkscape:connector-curvature="0"
       id="path160"
       d="m 280.93,300.79 h -4.77 a 0.41,0.41 0 0 1 -0.41,-0.4 0.41,0.41 0 0 1 0.41,-0.41 h 4.76 a 0.41,0.41 0 0 1 0.41,0.41 0.41,0.41 0 0 1 -0.4,0.4 z"
       class="cls-6" />
    <path
       inkscape:connector-curvature="0"
       id="path162"
       d="m 257.74,293.41 -15.3,0.11 a 0.4,0.4 0 0 1 -0.41,-0.4 0.4,0.4 0 0 1 0.4,-0.41 l 15.3,-0.12 a 0.41,0.41 0 0 1 0,0.82 z"
       class="cls-6" />
    <path
       inkscape:connector-curvature="0"
       id="path164"
       d="m 267.26,293.34 -6.71,0.05 a 0.41,0.41 0 0 1 -0.41,-0.41 0.41,0.41 0 0 1 0.4,-0.41 l 6.71,-0.05 a 0.41,0.41 0 0 1 0,0.82 z"
       class="cls-6" />
    <rect
       id="rect166"
       transform="rotate(-0.59,270.14366,155.80091)"
       rx="2.4100001"
       height="95.129997"
       width="58.790001"
       y="109.66"
       x="242.84"
       class="cls-5" />
    <rect
       id="rect168"
       transform="rotate(-0.59,267.25035,151.90148)"
       rx="2.4100001"
       height="95.129997"
       width="58.790001"
       y="105.47"
       x="239.63"
       class="cls-6" />
    <path
       inkscape:connector-curvature="0"
       id="path170"
       d="m 298.16,107.55 v 5 l -58.79,0.6 -0.06,-5.17 a 2.32,2.32 0 0 1 2.29,-2.33 l 54.06,-0.55 a 2.43,2.43 0 0 1 2.5,2.45 z"
       class="cls-7" />
    <path
       inkscape:connector-curvature="0"
       id="path172"
       d="m 290.9,108.23 a 0.35,0.35 0 0 1 -0.35,-0.34 0.35,0.35 0 0 1 0.35,-0.36 h 4.41 a 0.34,0.34 0 0 1 0.35,0.34 0.35,0.35 0 0 1 -0.35,0.36 z"
       class="cls-6" />
    <path
       inkscape:connector-curvature="0"
       id="path174"
       d="m 290.91,109.36 a 0.35,0.35 0 0 1 -0.35,-0.35 0.35,0.35 0 0 1 0.35,-0.35 h 4.41 a 0.38,0.38 0 0 1 0.35,0.35 0.35,0.35 0 0 1 -0.34,0.36 h -4.41 z"
       class="cls-6" />
    <path
       inkscape:connector-curvature="0"
       id="path176"
       d="m 290.92,110.49 a 0.36,0.36 0 0 1 -0.35,-0.35 0.35,0.35 0 0 1 0.35,-0.35 l 4.41,-0.05 v 0 a 0.35,0.35 0 0 1 0.35,0.35 0.34,0.34 0 0 1 -0.34,0.35 h -4.41 z"
       class="cls-6" />
    <path
       inkscape:connector-curvature="0"
       id="path178"
       d="m 244.65,111.66 a 0.39,0.39 0 0 1 -0.24,-0.1 L 242.79,110 a 0.5,0.5 0 0 1 0,-0.69 l 1.53,-1.55 a 0.35,0.35 0 0 1 0.49,0 0.36,0.36 0 0 1 0,0.5 l -1.38,1.4 1.47,1.44 a 0.34,0.34 0 0 1 0,0.49 0.36,0.36 0 0 1 -0.25,0.07 z"
       class="cls-6" />
    <path
       inkscape:connector-curvature="0"
       id="path180"
       d="m 296.37,200.48 -54.16,0.31 a 2.36,2.36 0 0 1 -2.37,-2.35 l -0.11,-18.77 58.89,-0.33 0.11,18.77 a 2.37,2.37 0 0 1 -2.36,2.37 z"
       class="cls-8" />
    <rect
       id="rect182"
       transform="matrix(1,-0.01,0.01,1,-0.69,1.52)"
       rx="0.77999997"
       height="4.1599998"
       width="25.219999"
       y="121.92"
       x="256.25"
       class="cls-4" />
    <rect
       id="rect184"
       transform="rotate(-0.32,271.76425,140.4181)"
       rx="3.3199999"
       height="7.4499998"
       width="45.189999"
       y="135.61"
       x="246.35001"
       class="cls-13" />
    <path
       inkscape:connector-curvature="0"
       id="path186"
       d="m 252.54,139.45 a 2.29,2.29 0 1 1 -2.3,-2.28 2.29,2.29 0 0 1 2.3,2.28 z"
       class="cls-9" />
    <path
       inkscape:connector-curvature="0"
       id="path188"
       d="m 251.07,138.8 a 0.83,0.83 0 0 1 -1.65,0 0.83,0.83 0 0 1 1.65,0 z"
       class="cls-6" />
    <path
       inkscape:connector-curvature="0"
       id="path190"
       d="M 251.48,140.94 H 249 v -0.3 a 1.28,1.28 0 0 1 1.28,-1.29 v 0 a 1.15,1.15 0 0 1 1.17,1.15 z"
       class="cls-6" />
    <rect
       id="rect192"
       transform="rotate(-0.32,271.72925,152.95152)"
       rx="3.3199999"
       height="7.4499998"
       width="45.189999"
       y="147.74001"
       x="246.42"
       class="cls-13" />
    <path
       inkscape:connector-curvature="0"
       id="path194"
       d="m 252.61,151.58 a 2.29,2.29 0 1 1 -2.3,-2.28 2.29,2.29 0 0 1 2.3,2.28 z"
       class="cls-9" />
    <rect
       id="rect196"
       transform="rotate(-0.32,250.24338,152.89152)"
       rx="0.23"
       height="1.8200001"
       width="1.99"
       y="151.22"
       x="249.32001"
       class="cls-6" />
    <path
       inkscape:connector-curvature="0"
       id="path198"
       d="m 249.51,151.39 v -0.57 a 0.55,0.55 0 0 1 0.56,-0.56 h 0.52 a 0.49,0.49 0 0 1 0.36,0.15 0.51,0.51 0 0 1 0.15,0.35 v 0.63 h -0.18 v -0.63 a 0.3,0.3 0 0 0 -0.1,-0.23 0.32,0.32 0 0 0 -0.23,-0.09 h -0.52 a 0.36,0.36 0 0 0 -0.27,0.12 0.39,0.39 0 0 0 -0.11,0.27 v 0.56 z"
       class="cls-6" />
    <path
       inkscape:connector-curvature="0"
       id="path200"
       d="m 278.17,168.63 -16.63,0.1 a 3.66,3.66 0 0 1 -3.67,-3.63 v 0 a 3.64,3.64 0 0 1 3.63,-3.66 l 16.63,-0.1 a 3.64,3.64 0 0 1 3.66,3.63 v 0 a 3.63,3.63 0 0 1 -3.62,3.66 z"
       class="cls-11" />
    <path
       inkscape:connector-curvature="0"
       id="path202"
       d="m 253.12,187.41 a 0.7,0.7 0 1 1 0,-1.4 l 32.18,-0.18 v 0 a 0.7,0.7 0 1 1 0,1.4 z"
       class="cls-6" />
    <path
       inkscape:connector-curvature="0"
       id="path204"
       d="m 259.67,192.25 a 0.7,0.7 0 0 1 0,-1.4 l 19.14,-0.11 v 0 a 0.7,0.7 0 0 1 0,1.4 z"
       class="cls-6" />
    <rect
       id="rect206"
       transform="rotate(-0.59,229.0422,216.7706)"
       rx="2.4100001"
       height="95.129997"
       width="58.790001"
       y="170.97"
       x="201.74001"
       class="cls-5" />
    <rect
       id="rect208"
       transform="matrix(1,-0.01,0.01,1,-2.18,2.34)"
       rx="2.4100001"
       height="95.129997"
       width="58.790001"
       y="166.78"
       x="198.52"
       class="cls-6" />
    <rect
       id="rect210"
       transform="matrix(1,-0.01,0.01,1,-2.18,2.34)"
       rx="2.4100001"
       height="95.129997"
       width="58.790001"
       y="166.78"
       x="198.52"
       class="cls-14" />
    <path
       inkscape:connector-curvature="0"
       id="path212"
       d="m 257.05,168.86 0.05,5 -58.79,0.6 -0.05,-5.17 a 2.3,2.3 0 0 1 2.28,-2.33 l 54.06,-0.55 a 2.42,2.42 0 0 1 2.45,2.45 z"
       class="cls-7" />
    <path
       inkscape:connector-curvature="0"
       id="path214"
       d="m 249.79,169.54 a 0.35,0.35 0 0 1 -0.35,-0.34 0.36,0.36 0 0 1 0.35,-0.36 h 4.41 a 0.37,0.37 0 0 1 0.35,0.35 0.34,0.34 0 0 1 -0.34,0.35 h -4.41 z"
       class="cls-6" />
    <path
       inkscape:connector-curvature="0"
       id="path216"
       d="m 249.8,170.67 a 0.35,0.35 0 0 1 0,-0.7 h 4.41 v 0 a 0.35,0.35 0 0 1 0.36,0.34 0.36,0.36 0 0 1 -0.35,0.36 h -4.41 z"
       class="cls-6" />
    <path
       inkscape:connector-curvature="0"
       id="path218"
       d="m 249.82,171.8 a 0.35,0.35 0 0 1 -0.35,-0.35 0.34,0.34 0 0 1 0.34,-0.35 h 4.41 v 0 a 0.36,0.36 0 0 1 0.35,0.35 0.35,0.35 0 0 1 -0.35,0.35 l -4.41,0.05 z"
       class="cls-6" />
    <path
       inkscape:connector-curvature="0"
       id="path220"
       d="m 203.55,173 a 0.35,0.35 0 0 1 -0.25,-0.1 l -1.62,-1.59 a 0.5,0.5 0 0 1 0,-0.69 L 203.2,169 a 0.35003571,0.35003571 0 1 1 0.5,0.49 l -1.38,1.4 1.47,1.44 a 0.35,0.35 0 0 1 0,0.49 0.36,0.36 0 0 1 -0.24,0.18 z"
       class="cls-6" />
    <g
       id="g226"
       class="cls-10">
      <path
         inkscape:connector-curvature="0"
         id="path222"
         d="m 255.27,261.8 -54.16,0.3 a 2.36,2.36 0 0 1 -2.38,-2.35 l -0.11,-18.75 58.89,-0.33 0.11,18.77 a 2.38,2.38 0 0 1 -2.35,2.36 z"
         class="cls-6" />
      <path
         inkscape:connector-curvature="0"
         id="path224"
         d="m 201.09,262.45 a 2.7,2.7 0 0 1 -2.71,-2.7 l -0.11,-19.12 59.59,-0.33 0.11,19.11 a 2.72,2.72 0 0 1 -2.7,2.74 l -54.16,0.3 z m -2.09,-21.12 0.11,18.42 a 2,2 0 0 0 0.6,1.42 2,2 0 0 0 1.41,0.58 v 0 l 54.16,-0.3 a 2,2 0 0 0 2,-2 L 257.16,241 Z"
         class="cls-6" />
    </g>
    <rect
       id="rect228"
       transform="rotate(-89.93,229.58323,184.93288)"
       rx="1.37"
       height="45.189999"
       width="6.9699998"
       y="162.34"
       x="226.10001"
       class="cls-6" />
    <path
       inkscape:connector-curvature="0"
       id="path230"
       d="m 251,193.85 -42.88,-0.06 a 1.15,1.15 0 0 1 -1.16,-1.15 v 0 a 1.16,1.16 0 0 1 1.16,-1.16 l 42.88,0.06 a 1.15,1.15 0 0 1 1.15,1.15 v 0 a 1.16,1.16 0 0 1 -1.15,1.16 z"
       class="cls-6" />
    <path
       inkscape:connector-curvature="0"
       id="path232"
       d="M 251,199.17 H 208.12 A 1.15,1.15 0 0 1 207,198 v 0 a 1.15,1.15 0 0 1 1.15,-1.15 l 42.88,0.05 a 1.15,1.15 0 0 1 1.15,1.16 v 0 a 1.14,1.14 0 0 1 -1.18,1.11 z"
       class="cls-6" />
    <path
       inkscape:connector-curvature="0"
       id="path234"
       d="m 212.78,207 a 2.91,2.91 0 1 1 -2.9,-2.91 2.9,2.9 0 0 1 2.9,2.91 z"
       class="cls-11" />
    <path
       inkscape:connector-curvature="0"
       id="path236"
       d="m 212.76,220.16 a 2.91,2.91 0 1 1 -2.9,-2.91 2.9,2.9 0 0 1 2.9,2.91 z"
       class="cls-11" />
    <path
       inkscape:connector-curvature="0"
       id="path238"
       d="m 212.75,233 a 2.91,2.91 0 1 1 -2.91,-2.91 2.92,2.92 0 0 1 2.91,2.91 z"
       class="cls-11" />
    <path
       inkscape:connector-curvature="0"
       id="path240"
       d="m 242.24,206 v 0 h -27.81 a 0.34,0.34 0 0 1 -0.35,-0.35 0.35,0.35 0 0 1 0.35,-0.35 v 0 h 27.81 a 0.35,0.35 0 0 1 0.35,0.35 0.35,0.35 0 0 1 -0.35,0.35 z"
       class="cls-6" />
    <path
       inkscape:connector-curvature="0"
       id="path242"
       d="m 228.33,208.89 v 0 h -13.91 a 0.35,0.35 0 0 1 0,-0.7 v 0 h 13.91 a 0.35,0.35 0 0 1 0,0.7 z"
       class="cls-6" />
    <path
       inkscape:connector-curvature="0"
       id="path244"
       d="m 242.22,219.56 v 0 h -27.81 a 0.35,0.35 0 0 1 -0.35,-0.35 0.35,0.35 0 0 1 0.35,-0.35 v 0 h 27.81 a 0.35,0.35 0 0 1 0,0.7 z"
       class="cls-6" />
    <path
       inkscape:connector-curvature="0"
       id="path246"
       d="m 228.31,222.5 v 0 h -13.9 a 0.34,0.34 0 0 1 -0.35,-0.35 0.35,0.35 0 0 1 0.35,-0.35 v 0 h 13.9 a 0.35,0.35 0 1 1 0,0.7 z"
       class="cls-6" />
    <path
       inkscape:connector-curvature="0"
       id="path248"
       d="m 242.21,232 v 0 h -27.82 a 0.35,0.35 0 1 1 0,-0.7 v 0 h 27.81 a 0.35,0.35 0 0 1 0.35,0.35 0.35,0.35 0 0 1 -0.34,0.35 z"
       class="cls-6" />
    <path
       inkscape:connector-curvature="0"
       id="path250"
       d="m 228.3,234.93 v 0 h -13.91 a 0.35,0.35 0 0 1 0,-0.7 v 0 h 13.91 a 0.35,0.35 0 0 1 0.35,0.35 0.35,0.35 0 0 1 -0.35,0.35 z"
       class="cls-6" />
    <path
       inkscape:connector-curvature="0"
       id="path252"
       d="m 212,248.72 a 0.7,0.7 0 0 1 0,-1.4 l 32.19,-0.18 v 0 a 0.7,0.7 0 1 1 0,1.4 l -32.18,0.18 z"
       class="cls-6" />
    <path
       inkscape:connector-curvature="0"
       id="path254"
       d="m 218.57,253.56 a 0.71,0.71 0 0 1 -0.71,-0.7 0.7,0.7 0 0 1 0.7,-0.7 l 19.14,-0.11 v 0 a 0.7,0.7 0 0 1 0,1.4 l -19.14,0.11 z"
       class="cls-6" />
    <rect
       id="rect256"
       rx="1.13"
       height="16.860001"
       width="52.509998"
       y="136.96001"
       x="81.300003"
       class="cls-7" />
    <path
       inkscape:connector-curvature="0"
       id="path258"
       d="m 90.13,150.5 a 5.43,5.43 0 1 1 5.43,-5.43 5.44,5.44 0 0 1 -5.43,5.43 z"
       class="cls-11" />
    <path
       inkscape:connector-curvature="0"
       id="path260"
       d="m 89.65,147.11 -2,-2.8 a 0.54,0.54 0 0 1 0.12,-0.75 0.53,0.53 0 0 1 0.4,-0.1 0.55,0.55 0 0 1 0.35,0.22 l 1.3,1.79 6.42,-6.47 a 0.55,0.55 0 0 1 0.38,-0.16 v 0 A 0.55,0.55 0 0 1 97,139 a 0.54,0.54 0 0 1 0,0.76 z"
       class="cls-6" />
    <path
       inkscape:connector-curvature="0"
       id="path262"
       d="m 127,143 h -26.84 a 0.35,0.35 0 1 1 0,-0.7 H 127 a 0.35,0.35 0 0 1 0,0.7 z"
       class="cls-15" />
    <path
       inkscape:connector-curvature="0"
       id="path264"
       d="m 112.16,146.15 h -12 a 0.35,0.35 0 0 1 -0.35,-0.35 0.35,0.35 0 0 1 0.35,-0.35 h 12 a 0.34,0.34 0 0 1 0.35,0.35 0.35,0.35 0 0 1 -0.35,0.35 z"
       class="cls-15" />
    <path
       inkscape:connector-curvature="0"
       id="path266"
       d="m 127,146.15 h -12 a 0.35,0.35 0 0 1 -0.35,-0.35 0.35,0.35 0 0 1 0.35,-0.35 h 12 a 0.35,0.35 0 0 1 0.35,0.35 0.35,0.35 0 0 1 -0.35,0.35 z"
       class="cls-15" />
    <path
       inkscape:connector-curvature="0"
       id="path268"
       d="m 127,149.48 h -26.84 a 0.35,0.35 0 0 1 -0.35,-0.35 0.35,0.35 0 0 1 0.35,-0.35 H 127 a 0.35,0.35 0 0 1 0.35,0.35 0.35,0.35 0 0 1 -0.35,0.35 z"
       class="cls-15" />
    <rect
       id="rect270"
       rx="1.13"
       height="16.860001"
       width="52.509998"
       y="214.45"
       x="273.48999"
       class="cls-7" />
    <path
       inkscape:connector-curvature="0"
       id="path272"
       d="m 282.32,228 a 5.43,5.43 0 1 1 5.43,-5.43 5.44,5.44 0 0 1 -5.43,5.43 z"
       class="cls-11" />
    <path
       inkscape:connector-curvature="0"
       id="path274"
       d="m 281.84,224.61 -2,-2.81 a 0.52,0.52 0 0 1 -0.09,-0.4 0.5,0.5 0 0 1 0.21,-0.35 0.58,0.58 0 0 1 0.4,-0.1 0.55,0.55 0 0 1 0.35,0.22 l 1.29,1.83 6.46,-6.46 a 0.54,0.54 0 0 1 0.76,0.76 z m -1.73,-3 z"
       class="cls-6" />
    <path
       inkscape:connector-curvature="0"
       id="path276"
       d="m 319.21,220.45 h -26.86 a 0.34,0.34 0 0 1 -0.35,-0.35 0.35,0.35 0 0 1 0.35,-0.35 h 26.86 a 0.35,0.35 0 0 1 0.35,0.35 0.34,0.34 0 0 1 -0.35,0.35 z"
       class="cls-15" />
    <path
       inkscape:connector-curvature="0"
       id="path278"
       d="m 304.35,223.64 h -12 a 0.35,0.35 0 1 1 0,-0.7 h 12 a 0.35,0.35 0 1 1 0,0.7 z"
       class="cls-15" />
    <path
       inkscape:connector-curvature="0"
       id="path280"
       d="m 319.21,223.64 h -12 a 0.35,0.35 0 0 1 0,-0.7 h 12 a 0.35,0.35 0 0 1 0,0.7 z"
       class="cls-15" />
    <path
       inkscape:connector-curvature="0"
       id="path282"
       d="m 319.21,227 h -26.86 a 0.34,0.34 0 0 1 -0.35,-0.35 0.35,0.35 0 0 1 0.35,-0.35 h 26.86 a 0.35,0.35 0 0 1 0.35,0.35 0.34,0.34 0 0 1 -0.35,0.35 z"
       class="cls-15" />
  </g>
</svg>
