<?xml version="1.0" encoding="UTF-8" standalone="no"?>
<svg
   xmlns:dc="http://purl.org/dc/elements/1.1/"
   xmlns:cc="http://creativecommons.org/ns#"
   xmlns:rdf="http://www.w3.org/1999/02/22-rdf-syntax-ns#"
   xmlns:svg="http://www.w3.org/2000/svg"
   xmlns="http://www.w3.org/2000/svg"
   xmlns:sodipodi="http://sodipodi.sourceforge.net/DTD/sodipodi-0.dtd"
   xmlns:inkscape="http://www.inkscape.org/namespaces/inkscape"
   inkscape:version="1.0beta2 (2b71d25, 2019-12-03)"
   height="231.95"
   width="277.73859"
   sodipodi:docname="automation-development.svg"
   id="svg197"
   version="1.1"
   viewBox="0 0 277.73859 231.95">
  <metadata
     id="metadata201">
    <rdf:RDF>
      <cc:Work
         rdf:about="">
        <dc:format>image/svg+xml</dc:format>
        <dc:type
           rdf:resource="http://purl.org/dc/dcmitype/StillImage" />
        <dc:title></dc:title>
      </cc:Work>
    </rdf:RDF>
  </metadata>
  <sodipodi:namedview
     inkscape:current-layer="svg197"
     inkscape:window-maximized="0"
     inkscape:window-y="23"
     inkscape:window-x="0"
     inkscape:cy="115"
     inkscape:cx="127.00163"
     inkscape:zoom="1.6175"
     fit-margin-bottom="0"
     fit-margin-right="0"
     fit-margin-left="0"
     fit-margin-top="0"
     showgrid="false"
     id="namedview199"
     inkscape:window-height="751"
     inkscape:window-width="1404"
     inkscape:pageshadow="2"
     inkscape:pageopacity="0"
     guidetolerance="10"
     gridtolerance="10"
     objecttolerance="10"
     borderopacity="1"
     inkscape:document-rotation="0"
     bordercolor="#666666"
     pagecolor="#ffffff" />
  <defs
     id="defs12">
    <style
       id="style10">.cls-1{fill:#e9e9e9;}.cls-2{fill:none;stroke:#006ad2;stroke-miterlimit:10;stroke-width:0.75px;}.cls-3{fill:#1a2e35;}.cls-4{fill:#e67b62;}.cls-5{fill:#0052ce;}.cls-6,.cls-7{opacity:0.2;}.cls-8{fill:#e1e1e1;}.cls-12,.cls-9{fill:#fff;}.cls-10{fill:#d54c38;}.cls-11{fill:#43c4f0;}.cls-12{opacity:0.3;}</style>
  </defs>
  <g
     transform="translate(-72.998366,-85)"
     id="Automação">
    <path
       inkscape:connector-curvature="0"
       id="path14"
       d="m 328.76,266.09 c 24.6,-23.49 30.48,-71.43 7.69,-104.76 -19,-27.79 -54,-56.37 -98,-64.7 -44,-8.33 -82.7,-8.32 -99.4,2.68 -13.66,9 -7.31,21.56 -3,32.22 5.72,14.23 6.56,25.52 -17,46.2 -26.92,23.59 -34.19,32.45 -35.54,55.27 -1.09,18.56 14.4,43.52 34.73,47.1 28.31,5 38.81,-8.18 66.5,-17 22.22,-7.12 37.62,-3.79 57.76,9.84 20.14,13.63 50.16,27.61 86.26,-6.85 z"
       class="cls-1" />
    <path
       inkscape:connector-curvature="0"
       id="path16"
       d="m 326.18,286.38 c 25.35,-25.4 31.41,-77.27 7.92,-113.33 -19.57,-30.06 -55.62,-61 -101.05,-70 -45.43,-9 -85.22,-9 -102.44,2.9 -14.08,9.75 -7.53,23.32 -3.12,34.85 5.9,15.39 6.77,27.62 -17.49,50 -27.69,25.53 -35.19,35.11 -36.57,59.8 -1.13,20.07 14.84,47.08 35.79,51 29.17,5.39 40,-8.84 68.53,-18.44 22.89,-7.69 38.77,-4.09 59.53,10.66 20.76,14.75 51.72,29.84 88.9,-7.44 z"
       class="cls-2" />
    <path
       inkscape:connector-curvature="0"
       id="path18"
       d="m 122.22,97.74 c 0.54,-4.47 7.61,-8 13.68,-5.88 7,2.44 5.9,8.86 10.53,9.11 4.63,0.25 6.95,8.46 2.89,12.26 -4.06,3.8 3.4,5.53 3.65,10.83 0.25,5.3 0.27,9.46 4.63,13.4 5.49,5 -3,21 -16.92,13.66 -12.49,-6.56 -28.12,2.88 -30.92,-6.23 -2.42,-7.85 9.44,-16.38 7,-20.19 -2.44,-3.81 -0.83,-7.39 2,-12 3.4,-5.63 -5.1,-14.05 3.46,-14.96 z"
       class="cls-3" />
    <path
       inkscape:connector-curvature="0"
       id="path20"
       d="m 150,134.83 c 1.7,3.45 3.46,7 5.27,10.38 0.91,1.7 1.85,3.38 2.81,5 a 37.36,37.36 0 0 0 3,4.47 l 0.22,0.27 a 1.08,1.08 0 0 0 0.15,0.13 2,2 0 0 0 0.58,0.27 6.26,6.26 0 0 0 2.07,0.24 23.42,23.42 0 0 0 5.22,-0.8 c 1.81,-0.44 3.63,-1 5.44,-1.65 1.81,-0.65 3.64,-1.33 5.4,-2 l 1.59,2.9 a 56.11,56.11 0 0 1 -10.93,5.62 26.57,26.57 0 0 1 -6.36,1.58 12.58,12.58 0 0 1 -3.83,-0.15 8,8 0 0 1 -2.17,-0.81 6.4,6.4 0 0 1 -1.06,-0.72 c -0.17,-0.13 -0.33,-0.29 -0.49,-0.44 l -0.33,-0.34 a 36.83,36.83 0 0 1 -3.92,-5.13 c -1.15,-1.71 -2.19,-3.46 -3.19,-5.21 -2,-3.52 -3.84,-7 -5.54,-10.73 z"
       class="cls-4" />
    <path
       inkscape:connector-curvature="0"
       id="path22"
       d="m 146,128.46 c 2.78,-0.09 7.7,10 7.7,10 l -7.24,8.78 c 0,0 -8.45,-10.59 -7.29,-14 1.16,-3.41 2.74,-4.63 6.83,-4.78 z"
       class="cls-5" />
    <polygon
       id="polygon24"
       points="146.8,146.82 146.43,130.91 150.19,142.71 "
       class="cls-6" />
    <path
       inkscape:connector-curvature="0"
       id="path26"
       d="m 184.93,148.8 -6.66,3.2 -0.12,2.34 c 1.92,1.93 5.94,0.71 5.94,0.71 l 4.93,-0.64 0.64,-2.78 a 2.42,2.42 0 0 0 -2.22,-3 l -1.34,-0.07 a 2.45,2.45 0 0 0 -1.17,0.24 z"
       class="cls-4" />
    <polygon
       id="polygon28"
       points="139.66,295.12 133.11,295.12 132.52,310.27 139.06,310.27 "
       class="cls-4" />
    <path
       inkscape:connector-curvature="0"
       id="path30"
       d="m 139.67,309.51 h -7.35 a 0.46,0.46 0 0 0 -0.48,0.45 l -0.25,5.81 a 1.19,1.19 0 0 0 1.17,1.17 c 2.56,-0.05 3.78,-0.2 7,-0.2 2,0 6.56,0.21 9.31,0.21 2.75,0 2.62,-2.72 1.45,-3 -5.24,-1.11 -7.85,-2.63 -9.73,-4.08 a 1.86,1.86 0 0 0 -1.12,-0.36 z"
       class="cls-3" />
    <g
       id="g34"
       class="cls-7">
      <polygon
         id="polygon32"
         points="132.81,302.93 133.11,295.12 139.66,295.12 139.35,302.93 " />
    </g>
    <path
       inkscape:connector-curvature="0"
       id="path36"
       d="m 148.59,131.71 c 0.15,4.14 -0.57,13.79 -4.92,36.29 l -26.56,-0.79 c 0.77,-10.8 1,-17.47 -3.53,-39.8 a 77.79,77.79 0 0 1 11.33,-1.15 82.8,82.8 0 0 1 12.06,0.36 c 3.07,0.37 6.38,1 8.56,1.46 a 3.86,3.86 0 0 1 3.06,3.63 z"
       class="cls-5" />
    <path
       inkscape:connector-curvature="0"
       id="path38"
       d="m 126.51,112.71 c 0.64,3.91 1.19,11 -1.6,13.55 a 15,15 0 0 0 9.21,6.57 c 6.12,-3.1 2.85,-6.21 2.85,-6.21 -4.3,-1.17 -4.09,-4.37 -3.25,-7.37 z"
       class="cls-4" />
    <polygon
       id="polygon40"
       points="129.07,132.24 134.12,132.83 133.33,131.28 "
       class="cls-8" />
    <path
       inkscape:connector-curvature="0"
       id="path42"
       d="m 133.33,131.28 c -1.37,-0.62 -7.69,-4.74 -7.94,-6 a 13.81,13.81 0 0 0 -3.17,0.7 c 0,0 0.81,4.65 5.77,10 1.28,-2.93 3.01,-4.21 5.34,-4.7 z"
       class="cls-9" />
    <polygon
       id="polygon44"
       points="137.08,131.46 134.12,132.83 134.47,131.28 "
       class="cls-8" />
    <path
       inkscape:connector-curvature="0"
       id="path46"
       d="m 134.47,131.28 c 2.11,-1.4 1.6,-4.33 1.39,-5.61 a 22.21,22.21 0 0 1 3.17,0.7 8.6,8.6 0 0 1 0.32,9.59 c -1.02,-2.76 -2.76,-3.75 -4.88,-4.68 z"
       class="cls-9" />
    <path
       inkscape:connector-curvature="0"
       id="path48"
       d="m 129.45,115.38 4.27,3.87 a 12.61,12.61 0 0 0 -0.44,2.13 c -1.64,-0.29 -3.86,-2.17 -4,-3.91 a 5.49,5.49 0 0 1 0.17,-2.09 z"
       class="cls-6" />
    <path
       inkscape:connector-curvature="0"
       id="path50"
       d="m 124.44,104.42 c 0.29,6.49 0.27,9.24 3.49,12.62 4.84,5.09 12.74,3.32 14.4,-3.12 1.49,-5.8 0.77,-15.43 -5.53,-18.12 a 8.86,8.86 0 0 0 -12.36,8.62 z"
       class="cls-4" />
    <path
       inkscape:connector-curvature="0"
       id="path52"
       d="m 123.55,97.37 c 2.39,1.2 5.71,1 6.33,2.44 0.62,1.44 -1.12,10.1 -4.72,10.14 -3.31,-4.47 -3.81,-10.51 -1.61,-12.58 z"
       class="cls-3" />
    <path
       inkscape:connector-curvature="0"
       id="path54"
       d="m 123.88,98.44 c 5.29,3.36 22.76,6.49 17.05,-1.07 -4.33,-5.74 -15.73,-2.86 -17.05,1.07 z"
       class="cls-3" />
    <path
       inkscape:connector-curvature="0"
       id="path56"
       d="m 143.73,168 c 0,0 2.57,48.33 2.7,68.19 0.14,20.67 -5.68,65.23 -5.68,65.23 h -8.85 c 0,0 1.69,-45.05 0.32,-65.43 -1.48,-22.22 -6.65,-68.57 -6.65,-68.57 z"
       class="cls-3" />
    <polygon
       id="polygon58"
       points="141.97,298.42 130.31,298.02 131.17,301.74 141.55,301.74 "
       class="cls-5" />
    <path
       inkscape:connector-curvature="0"
       id="path60"
       d="m 127.44,184.77 c 1,-1.19 2.21,-0.57 3.85,2.83 5.59,11.59 2.75,30.08 0.36,40.73 -1.08,-13.26 -2.85,-30.73 -4.21,-43.56 z"
       class="cls-6" />
    <path
       inkscape:connector-curvature="0"
       id="path62"
       d="m 135.19,106.89 c 0,0.52 0.26,1 0.61,1 0.35,0 0.63,-0.41 0.64,-0.94 0.01,-0.53 -0.27,-1 -0.61,-1 -0.34,0 -0.63,0.41 -0.64,0.94 z"
       class="cls-3" />
    <path
       inkscape:connector-curvature="0"
       id="path64"
       d="m 141.15,106.84 c 0,0.53 0.26,1 0.61,1 0.35,0 0.63,-0.41 0.64,-0.94 0.01,-0.53 -0.27,-1 -0.61,-1 -0.34,0 -0.63,0.41 -0.64,0.94 z"
       class="cls-3" />
    <path
       inkscape:connector-curvature="0"
       id="path66"
       d="m 141.64,105.92 1.27,-0.34 c 0,0 -0.67,0.98 -1.27,0.34 z"
       class="cls-3" />
    <path
       inkscape:connector-curvature="0"
       id="path68"
       d="m 138.86,107.34 a 13.87,13.87 0 0 0 1.82,3.4 2.27,2.27 0 0 1 -1.89,0.32 z"
       class="cls-10" />
    <path
       inkscape:connector-curvature="0"
       id="path70"
       d="m 135.88,113.08 a 4.71,4.71 0 0 0 0.78,0.07 0.15,0.15 0 0 0 0.15,-0.15 0.15,0.15 0 0 0 -0.15,-0.16 4.16,4.16 0 0 1 -3.38,-1.69 0.16,0.16 0 0 0 -0.21,-0.05 0.16,0.16 0 0 0 0,0.22 4.34,4.34 0 0 0 2.81,1.76 z"
       class="cls-3" />
    <path
       inkscape:connector-curvature="0"
       id="path72"
       d="M 122.59,110.34 A 4.76,4.76 0 0 0 125,113 c 1.51,0.7 2.54,-0.58 2.34,-2.15 -0.17,-1.4 -1.16,-3.47 -2.78,-3.52 a 2.13,2.13 0 0 0 -1.97,3.01 z"
       class="cls-4" />
    <path
       inkscape:connector-curvature="0"
       id="path74"
       d="m 132.79,105.14 a 0.28,0.28 0 0 0 0.32,-0.16 3.68,3.68 0 0 1 2.52,-1.52 0.31,0.31 0 0 0 0.27,-0.35 0.3,0.3 0 0 0 -0.35,-0.26 4.23,4.23 0 0 0 -3,1.84 0.3,0.3 0 0 0 0.13,0.42 0.16,0.16 0 0 0 0.11,0.03 z"
       class="cls-3" />
    <path
       inkscape:connector-curvature="0"
       id="path76"
       d="m 143,103.78 a 0.3,0.3 0 0 0 0.29,-0.11 0.3,0.3 0 0 0 0,-0.43 3.08,3.08 0 0 0 -2.74,-0.71 0.31180924,0.31180924 0 0 0 0.17,0.6 v 0 a 2.43,2.43 0 0 1 2.17,0.58 0.27,0.27 0 0 0 0.11,0.07 z"
       class="cls-3" />
    <path
       inkscape:connector-curvature="0"
       id="path78"
       d="m 116.26,137.65 c -1.89,2.7 -3.79,5.59 -5.55,8.44 a 93.42,93.42 0 0 0 -4.85,8.77 l -0.26,0.55 -0.13,0.28 v 0 0 c 0,0 -0.06,0.1 -0.07,0.32 a 7.18,7.18 0 0 0 0.27,1.78 28.36,28.36 0 0 0 1.72,4.39 c 1.41,3 3.12,6 4.86,8.89 l -2.61,2 a 57.53,57.53 0 0 1 -6.71,-8.45 28.56,28.56 0 0 1 -2.64,-5.08 12,12 0 0 1 -0.8,-3.31 6.92,6.92 0 0 1 0.2,-2.27 c 0,-0.1 0.07,-0.21 0.1,-0.32 l 0.1,-0.28 0.12,-0.32 0.25,-0.64 c 0.66,-1.72 1.42,-3.37 2.22,-5 0.8,-1.63 1.66,-3.2 2.54,-4.76 a 92.59,92.59 0 0 1 5.87,-9 z"
       class="cls-4" />
    <path
       inkscape:connector-curvature="0"
       id="path80"
       d="m 113.58,127.41 c -2.68,0.73 -6.15,9.79 -6.15,9.79 l 10.1,7.69 c 0,0 4,-7.53 3,-11 -1,-3.47 -3.88,-7.32 -6.95,-6.48 z"
       class="cls-5" />
    <path
       inkscape:connector-curvature="0"
       id="path82"
       d="m 142.24,310.65 a 2.32,2.32 0 0 0 1.55,-0.4 0.79,0.79 0 0 0 0.2,-0.75 0.6,0.6 0 0 0 -0.3,-0.42 c -0.85,-0.43 -3.32,0.9 -3.6,1.05 a 0.14,0.14 0 0 0 -0.07,0.16 0.19,0.19 0 0 0 0.14,0.13 11.49,11.49 0 0 0 2.08,0.23 z m 1,-1.35 a 0.6,0.6 0 0 1 0.29,0.06 0.19,0.19 0 0 1 0.12,0.16 0.53,0.53 0 0 1 -0.12,0.5 c -0.36,0.36 -1.43,0.42 -2.91,0.18 a 7.77,7.77 0 0 1 2.65,-0.9 z"
       class="cls-5" />
    <path
       inkscape:connector-curvature="0"
       id="path84"
       d="m 140.19,310.42 h 0.06 c 0.75,-0.35 2.15,-1.76 1.95,-2.51 0,-0.17 -0.19,-0.39 -0.63,-0.43 a 1,1 0 0 0 -0.83,0.26 c -0.75,0.69 -0.72,2.45 -0.72,2.53 a 0.16,0.16 0 0 0 0.08,0.13 0.14,0.14 0 0 0 0.09,0.02 z m 1.29,-2.65 h 0.09 c 0.29,0 0.32,0.14 0.33,0.17 0.12,0.45 -0.82,1.56 -1.57,2 a 3.35,3.35 0 0 1 0.63,-2 0.77,0.77 0 0 1 0.52,-0.17 z"
       class="cls-5" />
    <polygon
       id="polygon86"
       points="113.81,295.12 107.27,295.12 105.1,310.27 111.64,310.27 "
       class="cls-4" />
    <path
       inkscape:connector-curvature="0"
       id="path88"
       d="m 111.88,309.51 h -7.35 a 0.53,0.53 0 0 0 -0.53,0.45 l -0.91,5.81 a 1,1 0 0 0 1,1.17 c 2.57,-0.05 3.8,-0.2 7,-0.2 2,0 3.61,0.21 6.36,0.21 2.75,0 2.92,-2.72 1.78,-3 -5.11,-1.11 -4.62,-2.63 -6.33,-4.08 a 1.71,1.71 0 0 0 -1.02,-0.36 z"
       class="cls-3" />
    <path
       inkscape:connector-curvature="0"
       id="path90"
       d="m 112.93,310.65 a 2.49,2.49 0 0 0 1.59,-0.4 0.87,0.87 0 0 0 0.29,-0.75 0.49,0.49 0 0 0 -0.26,-0.42 c -0.79,-0.43 -3.42,0.9 -3.71,1.05 a 0.15,0.15 0 0 0 -0.09,0.16 0.16,0.16 0 0 0 0.12,0.13 11.26,11.26 0 0 0 2.06,0.23 z m 1.18,-1.35 a 0.6,0.6 0 0 1 0.29,0.06 0.18,0.18 0 0 1 0.1,0.16 0.55,0.55 0 0 1 -0.18,0.5 c -0.4,0.36 -1.48,0.42 -2.93,0.18 a 8.51,8.51 0 0 1 2.72,-0.9 z"
       class="cls-5" />
    <path
       inkscape:connector-curvature="0"
       id="path92"
       d="m 110.9,310.42 h 0.1 c 0.78,-0.35 2.34,-1.76 2.23,-2.51 0,-0.17 -0.15,-0.39 -0.58,-0.43 a 1.11,1.11 0 0 0 -0.86,0.26 4.47,4.47 0 0 0 -1,2.53 0.15,0.15 0 0 0 0.15,0.16 z m 1.6,-2.65 h 0.09 c 0.28,0 0.3,0.14 0.3,0.17 0.07,0.45 -1,1.56 -1.79,2 a 3.6,3.6 0 0 1 0.86,-2 0.84,0.84 0 0 1 0.54,-0.17 z"
       class="cls-5" />
    <g
       id="g96"
       class="cls-7">
      <polygon
         id="polygon94"
         points="106.15,302.93 107.27,295.12 113.81,295.12 112.69,302.93 " />
    </g>
    <path
       inkscape:connector-curvature="0"
       id="path98"
       d="m 117.11,167.21 c -6.37,10.12 -4.59,47.37 -5.6,67.26 -1,20.69 -6.16,67 -6.16,67 h 8.84 c 0,0 8.5,-47.09 12.46,-67.06 4.36,-22 9.68,-67.15 9.68,-67.15 z"
       class="cls-3" />
    <polygon
       id="polygon100"
       points="115.51,298.42 103.84,298.02 104.76,301.74 115.14,301.74 "
       class="cls-5" />
    <path
       inkscape:connector-curvature="0"
       id="path102"
       d="m 135.68,106 1.27,-0.35 c 0,0 -0.67,0.95 -1.27,0.35 z"
       class="cls-3" />
    <path
       inkscape:connector-curvature="0"
       id="path104"
       d="M 116.76,165.63 116,168 c -0.1,0.18 0.12,0.38 0.42,0.39 l 27.34,0.81 c 0.24,0 0.44,-0.1 0.46,-0.25 l 0.31,-2.37 c 0,-0.17 -0.18,-0.31 -0.45,-0.32 l -26.89,-0.8 a 0.49,0.49 0 0 0 -0.43,0.17 z"
       class="cls-5" />
    <path
       inkscape:connector-curvature="0"
       id="path106"
       d="m 120.28,168.75 h -0.72 c -0.14,0 -0.25,-0.08 -0.23,-0.17 l 0.43,-3.08 c 0,-0.09 0.14,-0.16 0.28,-0.16 h 0.72 c 0.14,0 0.25,0.08 0.24,0.17 l -0.43,3.08 c -0.01,0.09 -0.14,0.16 -0.29,0.16 z"
       class="cls-3" />
    <path
       inkscape:connector-curvature="0"
       id="path108"
       d="m 141.74,169.39 h -0.72 c -0.15,0 -0.26,-0.09 -0.24,-0.18 l 0.43,-3.07 c 0,-0.09 0.14,-0.16 0.28,-0.16 h 0.72 c 0.14,0 0.25,0.08 0.24,0.17 l -0.43,3.08 c -0.02,0.09 -0.14,0.16 -0.28,0.16 z"
       class="cls-3" />
    <path
       inkscape:connector-curvature="0"
       id="path110"
       d="m 131,169.07 h -0.72 c -0.14,0 -0.25,-0.08 -0.24,-0.17 l 0.43,-3.08 c 0,-0.09 0.14,-0.16 0.29,-0.16 h 0.72 c 0.14,0 0.25,0.08 0.23,0.17 l -0.43,3.08 c 0,0.09 -0.13,0.16 -0.28,0.16 z"
       class="cls-3" />
    <path
       inkscape:connector-curvature="0"
       id="path112"
       d="m 110.09,169.36 7,1.2 -5.09,4.28 c 0.07,0 -3.86,-1.47 -4.26,-4.21 z"
       class="cls-4" />
    <path
       inkscape:connector-curvature="0"
       id="path114"
       d="m 119,175.94 -1.53,1.16 a 2,2 0 0 1 -2.37,0 l -3.1,-2.26 5.09,-4.28 2.23,2.46 a 2,2 0 0 1 -0.32,2.92 z"
       class="cls-4" />
    <rect
       id="rect116"
       rx="8.8999996"
       height="112.04"
       width="180.42999"
       y="154.37"
       x="144.48"
       class="cls-9" />
    <path
       inkscape:connector-curvature="0"
       id="path118"
       d="M 318.79,266.77 H 150.6 a 6.48,6.48 0 0 1 -6.47,-6.48 V 160.5 a 6.48,6.48 0 0 1 6.47,-6.5 h 168.19 a 6.48,6.48 0 0 1 6.47,6.48 v 99.79 a 6.48,6.48 0 0 1 -6.47,6.5 z m -168.19,-112 a 5.78,5.78 0 0 0 -5.77,5.78 v 99.79 a 5.78,5.78 0 0 0 5.77,5.78 h 168.19 a 5.78,5.78 0 0 0 5.77,-5.78 V 160.5 a 5.78,5.78 0 0 0 -5.77,-5.78 z"
       class="cls-5" />
    <path
       inkscape:connector-curvature="0"
       id="path120"
       d="m 322.71,266.42 h -176 a 4.79,4.79 0 0 0 -3.64,1.66 l -6.5,7.52 a 4.82,4.82 0 0 0 3.65,8 h 189 a 4.82,4.82 0 0 0 3.64,-8 l -6.5,-7.52 a 4.79,4.79 0 0 0 -3.65,-1.66 z"
       class="cls-9" />
    <path
       inkscape:connector-curvature="0"
       id="path122"
       d="m 329.21,283.92 h -189 a 5.16,5.16 0 0 1 -3.91,-8.54 l 6.49,-7.52 a 5.17,5.17 0 0 1 3.91,-1.79 h 176 a 5.17,5.17 0 0 1 3.91,1.79 l 6.5,7.52 a 5.16,5.16 0 0 1 -3.91,8.54 z M 146.68,266.77 a 4.47,4.47 0 0 0 -3.38,1.54 l -6.5,7.52 a 4.48,4.48 0 0 0 3.39,7.4 h 189 a 4.48,4.48 0 0 0 3.38,-7.4 l -6.5,-7.52 a 4.47,4.47 0 0 0 -3.38,-1.54 z"
       class="cls-5" />
    <path
       inkscape:connector-curvature="0"
       id="path124"
       d="m 138.49,278.69 a 2.15,2.15 0 0 0 -1.37,3.8 4.73,4.73 0 0 0 3.06,1.08 h 189 a 4.77,4.77 0 0 0 3.22,-1.21 2.14,2.14 0 0 0 -1.51,-3.67 z"
       class="cls-5" />
    <rect
       id="rect126"
       transform="rotate(90,234.695,210.395)"
       rx="3.8299999"
       height="173.46001"
       width="105.07"
       y="123.67"
       x="182.16"
       class="cls-11" />
    <path
       inkscape:connector-curvature="0"
       id="path128"
       d="M 317.46,261 H 151.93 a 2.08,2.08 0 0 1 -2.07,-2.08 v -97.09 a 2.08,2.08 0 0 1 2.08,-2.08 h 165.52 a 2.08,2.08 0 0 1 2.07,2.08 V 259 a 2.08,2.08 0 0 1 -2.07,2 z M 151.94,160.1 a 1.73,1.73 0 0 0 -1.74,1.73 V 259 a 1.73,1.73 0 0 0 1.73,1.73 h 165.53 a 1.73,1.73 0 0 0 1.73,-1.73 v -97.17 a 1.73,1.73 0 0 0 -1.73,-1.73 z"
       class="cls-12" />
    <path
       inkscape:connector-curvature="0"
       id="path130"
       d="m 261.43,196.47 c 0,3.41 33.31,3.41 33.31,0 0,-19.1 -33.31,-19.1 -33.31,0 z"
       class="cls-5" />
    <path
       inkscape:connector-curvature="0"
       id="path132"
       d="m 278.09,199.4 a 90.7,90.7 0 0 1 -11.5,-0.64 c -5,-0.68 -5.53,-1.63 -5.53,-2.29 0,-10.1 8.83,-14.7 17,-14.7 v 0 c 8.2,0 17,4.6 17,14.7 0.06,2.79 -14.13,2.93 -16.97,2.93 z m -16.29,-2.93 c 0,0.91 5.66,2.18 16.29,2.18 10.63,0 16.28,-1.27 16.28,-2.18 0,-9.59 -8.44,-13.95 -16.28,-13.95 -7.84,0 -16.28,4.36 -16.29,13.95 z"
       class="cls-9" />
    <path
       inkscape:connector-curvature="0"
       id="path134"
       d="m 297.49,153.25 c 2.57,5.4 5.59,17.92 6.06,27.81 a 2.07,2.07 0 0 1 -3,1.93 7.36,7.36 0 0 0 -2.43,-0.83 c -1,-0.16 -1.76,-1.56 -1.78,-3.24 L 296,154.16 c 0,-1.36 1,-1.98 1.49,-0.91 z"
       class="cls-9" />
    <path
       inkscape:connector-curvature="0"
       id="path136"
       d="m 301.48,183.58 a 2.33,2.33 0 0 1 -1.14,-0.29 7.12,7.12 0 0 0 -2.31,-0.79 c -1.18,-0.18 -2.06,-1.68 -2.08,-3.57 l -0.33,-24.76 a 1.68,1.68 0 0 1 1,-1.79 1.06,1.06 0 0 1 1.17,0.72 v 0 c 2.56,5.36 5.62,17.87 6.1,28 a 2.43,2.43 0 0 1 -2.42,2.53 z m -4.66,-30.52 v 0 c -0.19,0.05 -0.47,0.43 -0.46,1.1 l 0.32,24.76 c 0,1.49 0.68,2.77 1.49,2.89 a 7.87,7.87 0 0 1 2.55,0.87 1.72,1.72 0 0 0 2.52,-1.6 c -0.47,-10 -3.5,-22.38 -6,-27.68 v 0 c -0.11,-0.08 -0.24,-0.34 -0.42,-0.34 z"
       class="cls-5" />
    <path
       inkscape:connector-curvature="0"
       id="path138"
       d="m 298,185.9 c 0,4.92 -39.77,4.92 -39.77,0 v -54.81 a 74.38,74.38 0 0 1 7.9,-33.79 c 3.3,-6.49 7.44,-12 12,-12 4.56,0 8.68,5.46 12,12 a 74.26,74.26 0 0 1 7.9,33.79 z"
       class="cls-9" />
    <path
       inkscape:connector-curvature="0"
       id="path140"
       d="m 278.09,189.94 a 88.72,88.72 0 0 1 -13.73,-0.93 c -4.38,-0.72 -6.51,-1.74 -6.51,-3.11 v -54.81 a 75.06,75.06 0 0 1 7.94,-33.95 C 269.89,89.08 274,85 278.09,85 c 4.09,0 8.19,4.08 12.3,12.14 a 75,75 0 0 1 7.93,34 v 54.76 0 c 0,3.93 -18.16,4.04 -20.23,4.04 z m 0,-104.24 c -3.78,0 -7.7,4 -11.68,11.76 a 74.34,74.34 0 0 0 -7.86,33.63 v 54.81 c 0,1.88 8.58,3.34 19.54,3.34 10.96,0 19.53,-1.46 19.53,-3.34 V 131.09 A 74.34,74.34 0 0 0 289.76,97.46 C 285.79,89.65 281.86,85.7 278.09,85.7 Z"
       class="cls-5" />
    <path
       inkscape:connector-curvature="0"
       id="path142"
       d="m 278.09,111.82 c -6.42,0 -12.31,-1.75 -16.18,-4.8 l 0.43,-0.55 c 3.69,2.91 9.58,4.65 15.75,4.65 6.17,0 12.05,-1.74 15.74,-4.65 l 0.43,0.55 c -3.86,3.05 -9.76,4.8 -16.17,4.8 z"
       class="cls-5" />
    <path
       inkscape:connector-curvature="0"
       id="path144"
       d="m 259.51,153.25 c -4.44,5.55 -9.66,18.6 -10.23,28.61 a 2.08,2.08 0 0 0 2.94,2 18.52,18.52 0 0 1 6.29,-1.71 3.32,3.32 0 0 0 3,-3.24 l 0.55,-24.75 a 1.42,1.42 0 0 0 -2.55,-0.91 z"
       class="cls-9" />
    <path
       inkscape:connector-curvature="0"
       id="path146"
       d="M 251.35,184.42 A 2.36,2.36 0 0 1 250,184 a 2.41,2.41 0 0 1 -1.08,-2.16 c 0.58,-10.11 5.9,-23.3 10.31,-28.81 v 0 a 1.76,1.76 0 0 1 2,-0.56 1.74,1.74 0 0 1 1.16,1.7 l -0.55,24.76 a 3.65,3.65 0 0 1 -3.31,3.57 18.23,18.23 0 0 0 -6.17,1.68 2.31,2.31 0 0 1 -1.01,0.24 z m 8.43,-30.95 c -4.34,5.43 -9.58,18.43 -10.15,28.41 a 1.7,1.7 0 0 0 0.77,1.54 1.67,1.67 0 0 0 1.67,0.13 18.66,18.66 0 0 1 6.41,-1.74 3,3 0 0 0 2.68,-2.9 l 0.54,-24.75 a 1,1 0 0 0 -0.7,-1 1.08,1.08 0 0 0 -1.22,0.35 z"
       class="cls-5" />
    <ellipse
       id="ellipse148"
       ry="16.530001"
       rx="11.55"
       cy="138.08"
       cx="284.42001"
       class="cls-5" />
    <ellipse
       id="ellipse150"
       ry="13.83"
       rx="8.8999996"
       cy="138.08"
       cx="285.51999"
       class="cls-9" />
    <path
       inkscape:connector-curvature="0"
       id="path152"
       d="m 183.44,263.3 a 0.37,0.37 0 0 1 -0.37,-0.37 c 0,-0.36 0,-0.8 0,-1.31 -0.12,-3.87 -0.36,-11.93 4.6,-16.55 3,-2.81 7.52,-3.94 13.38,-3.34 18.4,1.86 28.64,-3.24 36.54,-18.18 3.51,-6.63 11.13,-7.56 17.85,-8.37 5.14,-0.62 10,-1.21 12.18,-4.25 1.34,-1.85 1.63,-4.52 0.89,-8.15 a 0.37262582,0.37262582 0 0 1 0.73,-0.15 c 0.78,3.85 0.45,6.71 -1,8.74 -2.38,3.3 -7.4,3.91 -12.7,4.55 -6.86,0.83 -13.95,1.69 -17.28,8 -8.07,15.26 -18.52,20.47 -37.27,18.57 -5.64,-0.57 -9.95,0.49 -12.81,3.15 -4.71,4.39 -4.47,12.22 -4.36,16 0,0.51 0,1 0,1.33 a 0.38,0.38 0 0 1 -0.38,0.33 z"
       class="cls-9" />
    <path
       inkscape:connector-curvature="0"
       id="path154"
       d="m 264.67,263.3 a 0.38,0.38 0 0 1 -0.37,-0.37 v -0.39 c -0.12,-6.85 -0.28,-16.24 10.14,-17.58 6.18,-0.8 9.84,-2.29 11.18,-4.56 1.34,-2.27 0.19,-5.29 -0.94,-8.17 -1,-2.5 -2,-5.09 -1.36,-7.29 a 22.26,22.26 0 0 1 5.27,-9.08 c 2.8,-3.2 4.34,-5 -1,-13 a 0.37,0.37 0 0 1 0.1,-0.51 0.37,0.37 0 0 1 0.52,0.1 c 5.7,8.45 3.92,10.48 1,13.85 a 21.56,21.56 0 0 0 -5.12,8.81 c -0.58,1.94 0.35,4.3 1.34,6.8 1.2,3 2.44,6.19 0.89,8.81 -1.55,2.62 -5.3,4.1 -11.72,4.92 -9.76,1.26 -9.61,10.27 -9.5,16.84 v 0.39 a 0.37,0.37 0 0 1 -0.37,0.38 z"
       class="cls-9" />
    <path
       inkscape:connector-curvature="0"
       id="path156"
       d="m 187.62,189.12 h -0.23 a 6.73,6.73 0 0 0 -5.94,-4.24 6.49,6.49 0 0 0 -2,0.21 6.92,6.92 0 0 0 -13.23,1.74 5.4004537,5.4004537 0 0 0 -0.14,10.8 l 21.11,1 a 4.7705477,4.7705477 0 1 0 0.46,-9.53 z"
       class="cls-9" />
    <path
       inkscape:connector-curvature="0"
       id="path158"
       d="m 218.05,167.15 v 0 a 8.41,8.41 0 0 1 5.89,2.43 8.29,8.29 0 0 1 1.33,10 l -6.62,-4.58 -3.41,-7.32 a 8.35,8.35 0 0 1 2.81,-0.49 m 0,-0.74 a 9,9 0 0 0 -3.81,0.84 l 3.82,8.21 7.42,5.19 a 9.05,9.05 0 0 0 -7.43,-14.24 z"
       class="cls-9" />
    <path
       inkscape:connector-curvature="0"
       id="path160"
       d="m 218.06,175.46 7.42,5.19 a 9,9 0 0 1 -1,1.21 9.05,9.05 0 1 1 -10.22,-14.61 z"
       class="cls-9" />
    <path
       inkscape:connector-curvature="0"
       id="path162"
       d="m 193.74,231.55 a 2.29,2.29 0 0 1 -2.23,-1.9 l -2.43,-14.87 a 2.26,2.26 0 0 1 1.87,-2.6 l 24.72,-4.05 a 2.25,2.25 0 0 1 2.6,1.87 l 2.44,14.87 a 2.27,2.27 0 0 1 -1.87,2.6 v 0 l -24.72,4.05 a 2.43,2.43 0 0 1 -0.38,0.03 z M 216,208.84 h -0.25 l -24.72,4 a 1.53,1.53 0 0 0 -1.26,1.75 l 2.44,14.87 a 1.51,1.51 0 0 0 1.75,1.25 l 24.72,-4 A 1.52,1.52 0 0 0 220,225 l -2.43,-14.87 a 1.55,1.55 0 0 0 -0.62,-1 1.47,1.47 0 0 0 -0.95,-0.29 z m 2.74,18.26 z"
       class="cls-9" />
    <polygon
       id="polygon164"
       points="202.53,224.74 209.45,219.08 201.09,215.92 "
       class="cls-9" />
    <rect
       id="rect166"
       height="15.1"
       width="5.0100002"
       y="207.08"
       x="306.31"
       class="cls-9" />
    <rect
       id="rect168"
       height="2.8399999"
       width="5.0100002"
       y="223.23"
       x="306.31"
       class="cls-9" />
    <rect
       id="rect170"
       height="1.42"
       width="5.0100002"
       y="227.8"
       x="306.31"
       class="cls-9" />
    <rect
       id="rect172"
       height="0.70999998"
       width="5.0100002"
       y="231.82001"
       x="306.31"
       class="cls-9" />
    <polygon
       id="polygon174"
       points="313.82,208.47 303.82,208.47 308.82,199.81 "
       class="cls-9" />
    <rect
       id="rect176"
       height="9.54"
       width="3.1700001"
       y="182.78999"
       x="238.12"
       class="cls-9" />
    <rect
       id="rect178"
       height="1.79"
       width="3.1700001"
       y="192.99001"
       x="238.12"
       class="cls-9" />
    <rect
       id="rect180"
       height="0.89999998"
       width="3.1700001"
       y="195.87"
       x="238.12"
       class="cls-9" />
    <rect
       id="rect182"
       height="0.44999999"
       width="3.1700001"
       y="198.41"
       x="238.12"
       class="cls-9" />
    <polygon
       id="polygon184"
       points="242.86,183.66 236.54,183.66 239.7,178.19 "
       class="cls-9" />
    <rect
       id="rect186"
       height="12.11"
       width="4.02"
       y="127.38"
       x="309.17001"
       class="cls-5" />
    <rect
       id="rect188"
       height="2.28"
       width="4.02"
       y="140.34"
       x="309.17001"
       class="cls-5" />
    <rect
       id="rect190"
       height="1.14"
       width="4.02"
       y="144.00999"
       x="309.17001"
       class="cls-5" />
    <rect
       id="rect192"
       height="0.56999999"
       width="4.02"
       y="147.23"
       x="309.17001"
       class="cls-5" />
    <polygon
       id="polygon194"
       points="315.2,128.5 307.17,128.5 311.18,121.55 "
       class="cls-5" />
  </g>
</svg>
