<?xml version="1.0" encoding="UTF-8"?>
<svg width="145.44mm" height="24.347mm" version="1.1" viewBox="0 0 145.44 24.347" xmlns="http://www.w3.org/2000/svg" xmlns:cc="http://creativecommons.org/ns#" xmlns:dc="http://purl.org/dc/elements/1.1/" xmlns:rdf="http://www.w3.org/1999/02/22-rdf-syntax-ns#">
 <metadata>
  <rdf:RDF>
   <cc:Work rdf:about="">
    <dc:format>image/svg+xml</dc:format>
    <dc:type rdf:resource="http://purl.org/dc/dcmitype/StillImage"/>
    <dc:title/>
   </cc:Work>
  </rdf:RDF>
 </metadata>
 <g transform="translate(-35.927 -61.395)" fill="#fff">
  <path d="m63.252 61.395c-4.8 0-8.8562 3.1911-10.174 7.5705-1.1674-0.92974-2.6401-1.4837-4.2477-1.4837-3.5158 0-6.4135 2.663-6.79 6.0868h-0.04545c-3.3442 0-6.0675 2.7254-6.0675 6.0868 0 3.3553 2.7157 6.0868 6.0675 6.0868h11.452c-0.28178-0.5959-0.42892-1.2468-0.43093-1.9062 0.0014-0.82318 0.22934-1.63 0.65822-2.332l-3.7965-4.7536c-0.30213 0.09991-0.61815 0.15124-0.93626 0.15197-0.47203-1.65e-4 -0.93736-0.11182-1.3584-0.32548l-2.4455 2.2859c0.1112 0.31239 0.16851 0.64145 0.16975 0.97311 8.9e-5 1.6173-1.3077 2.9285-2.9211 2.9288-0.77493 5.5e-5 -1.5181-0.30851-2.0661-0.85777-0.54794-0.54924-0.85575-1.2942-0.85571-2.071 2.88e-4 -1.6173 1.3084-2.9282 2.9218-2.9281 0.44476 9.7e-4 0.88345 0.10358 1.2826 0.30039l2.4503-2.2907c-0.12124-0.33012-0.18403-0.67896-0.18538-1.0307 2.88e-4 -1.665 1.3467-3.0146 3.0077-3.0149 1.6612-9.2e-5 3.0081 1.3497 3.0084 3.0149-9.7e-4 0.49108-0.1209 0.97456-0.35042 1.4084l3.7004 4.6343c0.668-0.37668 1.4214-0.57493 2.1878-0.57571 0.27582 7.28e-4 0.55096 0.02713 0.82193 0.07864l2.5815-5.9572c-0.98248-0.80002-1.5533-2.001-1.5539-3.2699 2.88e-4 -2.3281 1.8832-4.2153 4.2058-4.2152 2.3226-9.1e-5 4.2055 1.8871 4.2058 4.2152-0.0014 0.75269-0.2045 1.4912-0.58721 2.1388l3.6118 4.1501c0.32952-0.11732 0.67653-0.17782 1.0262-0.1791 1.7091-1.1e-4 3.0947 1.3885 3.095 3.1017 5.5e-5 0.82281-0.32602 1.612-0.90644 2.1938-0.58044 0.58182-1.3677 0.90868-2.1885 0.90862-0.82085 3.7e-5 -1.6081-0.3268-2.1885-0.90862-0.5804-0.58182-0.90648-1.371-0.90643-2.1938 0.0014-0.51033 0.12772-1.0125 0.36869-1.462l-3.5212-4.0463c-0.61655 0.33628-1.3073 0.51252-2.0092 0.51267-0.09557 1.1e-4 -0.19136-0.0037-0.28682-0.0092l-2.7006 6.1661c0.89524 0.84624 1.403 2.0249 1.4037 3.2583-0.0014 0.65934-0.14838 1.3102-0.42956 1.9062h10.835c3.3442 0 6.0675-2.7254 6.0675-6.0868 0-2.8805-1.9992-5.2988-4.6861-5.9288 0.08819-0.54627 0.13258-1.1076 0.13258-1.6797-1.8e-5 -5.8827-4.7577-10.652-10.626-10.652zm0.29089 7.0205c-0.98613-9.2e-5 -1.7857 0.80105-1.7859 1.7896-5.3e-5 0.47482 0.18812 0.9302 0.52303 1.2659 0.33495 0.33577 0.78925 0.52435 1.2629 0.52429 0.4737 5.5e-5 0.92798-0.18853 1.2629-0.52429 0.33493-0.33573 0.52306-0.79111 0.52303-1.2659-2.69e-4 -0.98849-0.79983-1.7896-1.786-1.7896zm-14.601 4.1908c-0.70538 5.5e-5 -1.2772 0.57322-1.2772 1.2803 5.3e-5 0.70706 0.57185 1.2802 1.2772 1.2803 0.33887 1.28e-4 0.66388-0.13474 0.90355-0.3748 0.23964-0.24011 0.37431-0.56583 0.37434-0.9055-3.5e-5 -0.33965-0.13472-0.66538-0.37434-0.9055-0.23967-0.24011-0.5647-0.37491-0.90355-0.37478zm22.858 5.4934c-0.34855-7.4e-5 -0.68283 0.13859-0.92933 0.38558-0.24652 0.24697-0.38503 0.58196-0.38514 0.93133-9e-5 0.34948 0.13832 0.68466 0.38491 0.93176 0.24653 0.24711 0.58089 0.3859 0.92956 0.38581 0.34864 1.1e-4 0.68303-0.13859 0.92953-0.38581 0.24652-0.2471 0.385-0.58228 0.38489-0.93176-9e-5 -0.34937-0.13868-0.68437-0.38512-0.93135-0.2465-0.24697-0.5808-0.38565-0.92929-0.38556zm-29.413 0.493c-0.68499-1.1e-4 -1.2404 0.55636-1.2407 1.243-3.5e-5 0.32986 0.1306 0.64622 0.36335 0.87946 0.23268 0.23324 0.54828 0.36426 0.87736 0.36422 0.68499-3.12e-4 1.2401-0.55705 1.24-1.2437-2.86e-4 -0.68636-0.55527-1.2427-1.24-1.243zm15.101 3.3397c-0.50364-5.5e-5 -0.98669 0.20046-1.3428 0.55744-0.35613 0.357-0.55617 0.8412-0.5561 1.346 2.35e-4 1.051 0.85038 1.9029 1.8989 1.9028 1.0483-2.38e-4 1.898-0.85201 1.8983-1.9028 1.61e-4 -1.0511-0.8497-1.9032-1.8983-1.9035z"/>
  <path d="m92.681 75.81c-0.21693-0.31027-0.52259-0.56721-0.91701-0.7708-0.39442-0.20359-0.81841-0.30541-1.272-0.30541-1.1241 0-1.9967 0.32964-2.6179 0.98895-0.62121 0.65929-0.93181 1.5222-0.93181 2.5887 0 1.0665 0.3106 1.9294 0.93181 2.5887 0.62121 0.65931 1.4938 0.98895 2.6179 0.98895 0.49301 0 0.91701-0.10669 1.272-0.31996 0.35498-0.21331 0.66064-0.46539 0.91701-0.75625l2.9285 3.025c-0.69022 0.69808-1.5037 1.1877-2.4404 1.4689-0.93673 0.28116-1.8291 0.42174-2.6771 0.42174-1.1044 0-2.1446-0.17434-3.1208-0.52356-0.97618-0.34904-1.8242-0.84836-2.544-1.498-0.7198-0.64961-1.2868-1.4301-1.7009-2.3415-0.41414-0.91139-0.6212-1.9294-0.6212-3.0541 0-1.1247 0.20706-2.1427 0.6212-3.0541 0.41413-0.91139 0.9811-1.6919 1.7009-2.3415 0.71981-0.64961 1.5678-1.1489 2.544-1.498 0.97618-0.34902 2.0164-0.52354 3.1208-0.52354 0.84799 0 1.7403 0.14061 2.6771 0.42174 0.93674 0.28118 1.7502 0.7708 2.4404 1.4689zm2.8841 2.5014c0-1.1247 0.20706-2.1427 0.6212-3.0541 0.41414-0.91139 0.98111-1.6919 1.7009-2.3415 0.71982-0.64961 1.5678-1.1489 2.544-1.498 0.97617-0.34902 2.0164-0.52354 3.1208-0.52354 1.1044 0 2.1446 0.17434 3.1208 0.52354 0.97618 0.34906 1.8242 0.84836 2.544 1.498 0.7198 0.64959 1.2868 1.4301 1.7009 2.3415 0.41413 0.91139 0.62119 1.9294 0.62119 3.0541 0 1.1247-0.20706 2.1427-0.62119 3.0541-0.41414 0.91137-0.98111 1.6919-1.7009 2.3415-0.71981 0.64959-1.5678 1.1489-2.544 1.498-0.97618 0.34904-2.0164 0.52356-3.1208 0.52356-1.1044 0-2.1446-0.17434-3.1208-0.52356-0.97618-0.34904-1.8242-0.84836-2.544-1.498-0.7198-0.64961-1.2868-1.4301-1.7009-2.3415-0.41414-0.91139-0.6212-1.9294-0.6212-3.0541zm4.4372 0c0 1.0665 0.3106 1.9294 0.93181 2.5887 0.6212 0.65931 1.4938 0.98895 2.6179 0.98895 1.1241 0 1.9967-0.32964 2.6179-0.98895 0.6212-0.65931 0.9318-1.5222 0.9318-2.5887 0-1.0665-0.3106-1.9294-0.9318-2.5887-0.62121-0.65931-1.4938-0.98895-2.6179-0.98895-1.1241 0-1.9967 0.32964-2.6179 0.98895-0.62121 0.65929-0.93181 1.5222-0.93181 2.5887zm28.117 7.0681h-4.0822v-1.8616h-0.0592c-0.17747 0.25208-0.40919 0.50902-0.69514 0.7708-0.28596 0.26178-0.6212 0.49932-1.0058 0.71262-0.38455 0.21331-0.80854 0.38781-1.272 0.52358-0.46344 0.13584-0.94167 0.20359-1.4347 0.20359-1.0649 0-2.0312-0.17929-2.8989-0.5381-0.86772-0.35874-1.6122-0.8629-2.2334-1.5125-0.6212-0.64959-1.0994-1.4204-1.4347-2.3124-0.33525-0.89201-0.50288-1.8712-0.50288-2.9378 0-0.98895 0.15284-1.9342 0.45851-2.8359 0.30567-0.90171 0.73952-1.7016 1.3016-2.3996 0.56205-0.69808 1.2473-1.2556 2.0559-1.6725 0.80855-0.41689 1.7256-0.62534 2.751-0.62534 0.92687 0 1.7896 0.14061 2.5883 0.42174 0.79869 0.28118 1.4544 0.7611 1.9671 1.4398h0.0592v-9.3659h4.4372zm-4.0822-7.0681c0-1.0665-0.31059-1.9294-0.9318-2.5887-0.6212-0.65931-1.4938-0.98895-2.6179-0.98895-1.1241 0-1.9967 0.32964-2.6179 0.98895-0.6212 0.65929-0.9318 1.5222-0.9318 2.5887 0 1.0665 0.3106 1.9294 0.9318 2.5887 0.62121 0.65931 1.4938 0.98895 2.6179 0.98895 1.1241 0 1.9967-0.32964 2.6179-0.98895 0.62121-0.65931 0.9318-1.5222 0.9318-2.5887zm6.5818-7.068h4.4372v14.136h-4.4372zm-0.35496-4.4502c0-0.6981 0.25144-1.2944 0.75431-1.7888 0.50288-0.49448 1.1093-0.74171 1.8192-0.74171 0.70994 0 1.3164 0.24722 1.8192 0.74171 0.50287 0.49447 0.75431 1.0907 0.75431 1.7888 0 0.69808-0.25144 1.2943-0.75431 1.7888-0.50288 0.49447-1.1093 0.74169-1.8192 0.74169-0.70996 0-1.3164-0.24722-1.8192-0.74169-0.50287-0.49448-0.75431-1.0907-0.75431-1.7888zm6.3451 11.518c0-1.1247 0.20706-2.1427 0.6212-3.0541 0.41413-0.91139 0.9811-1.6919 1.7009-2.3415 0.7198-0.64961 1.5678-1.1489 2.544-1.498 0.97616-0.34902 2.0164-0.52354 3.1208-0.52354s2.1446 0.17434 3.1208 0.52354c0.97618 0.34906 1.8242 0.84836 2.544 1.498 0.71981 0.64959 1.2868 1.4301 1.7009 2.3415 0.41415 0.91139 0.62118 1.9294 0.62118 3.0541 0 1.1247-0.20703 2.1427-0.62118 3.0541-0.41415 0.91137-0.98111 1.6919-1.7009 2.3415-0.71978 0.64959-1.5678 1.1489-2.544 1.498-0.97618 0.34904-2.0164 0.52356-3.1208 0.52356s-2.1446-0.17434-3.1208-0.52356c-0.97618-0.34904-1.8242-0.84836-2.544-1.498-0.71982-0.64961-1.2868-1.4301-1.7009-2.3415-0.41414-0.91139-0.6212-1.9294-0.6212-3.0541zm4.4372 0c0 1.0665 0.31059 1.9294 0.93181 2.5887 0.6212 0.65931 1.4938 0.98895 2.6179 0.98895 1.1241 0 1.9967-0.32964 2.6179-0.98895s0.93181-1.5222 0.93181-2.5887c0-1.0665-0.31061-1.9294-0.93181-2.5887-0.6212-0.65931-1.4938-0.98895-2.6179-0.98895-1.1241 0-1.9967 0.32964-2.6179 0.98895-0.62122 0.65929-0.93181 1.5222-0.93181 2.5887zm13.03-7.068h4.2597v1.9197h0.059c0.13822-0.27148 0.33526-0.54294 0.59163-0.81441s0.56204-0.51386 0.91701-0.72717c0.35498-0.21329 0.75926-0.38783 1.2128-0.52356 0.4536-0.13584 0.9466-0.2036 1.479-0.2036 1.1241 0 2.0312 0.16957 2.7215 0.509 0.69021 0.33934 1.2276 0.80957 1.6122 1.4107 0.38453 0.6011 0.64583 1.3089 0.78389 2.1233 0.13804 0.81441 0.20706 1.6967 0.20706 2.6469v7.7952h-4.4372v-6.9226c0-0.40721-0.0147-0.82897-0.0444-1.2653-0.0297-0.43628-0.11843-0.83865-0.2662-1.2071-0.14794-0.36844-0.3747-0.669-0.68041-0.90169-0.30564-0.23269-0.74442-0.34904-1.3163-0.34904s-1.0353 0.10193-1.3903 0.30541c-0.35498 0.20359-0.62615 0.47509-0.81346 0.81441-0.18739 0.33936-0.31062 0.72231-0.36981 1.1489-0.059 0.4266-0.0887 0.87258-0.0887 1.338v7.0389h-4.4371zm24.005 4.1594c-0.65079-0.79502-1.5086-1.1925-2.5736-1.1925-0.37466 0-0.73952 0.08726-1.0945 0.26178-0.35497 0.17434-0.53246 0.47507-0.53246 0.90169 0 0.34904 0.1824 0.60596 0.54726 0.77078 0.36484 0.1648 0.82825 0.31027 1.3903 0.4363 0.56204 0.12612 1.1635 0.26178 1.8044 0.40722 0.64094 0.14556 1.2424 0.37328 1.8044 0.68352 0.56205 0.31027 1.0255 0.73201 1.3903 1.2653 0.36486 0.53326 0.54726 1.2459 0.54726 2.1379 0 0.91139-0.20215 1.6628-0.6064 2.2542-0.40429 0.5914-0.92195 1.0665-1.553 1.4252-0.63105 0.35874-1.341 0.61082-2.1298 0.75625-0.78881 0.14556-1.5678 0.21815-2.3369 0.21815-1.0058 0-2.0214-0.14061-3.0469-0.42174-1.0255-0.28118-1.8932-0.7805-2.6031-1.498l2.6919-2.9377c0.41413 0.50416 0.87265 0.88712 1.3755 1.1489 0.5029 0.26178 1.0896 0.39265 1.7601 0.39265 0.51272 0 0.97615-0.07278 1.3903-0.21815 0.41415-0.14556 0.62119-0.41205 0.62119-0.79988 0-0.36844-0.1824-0.64475-0.54724-0.82897-0.36484-0.18422-0.82829-0.33932-1.3903-0.46538-0.56204-0.12612-1.1635-0.2618-1.8044-0.40722-0.64092-0.14556-1.2424-0.36358-1.8044-0.65445-0.56204-0.29087-1.0255-0.70292-1.3903-1.2362-0.3648-0.53328-0.54724-1.2459-0.54724-2.1379 0-0.83383 0.17268-1.5513 0.51765-2.1524 0.34512-0.60112 0.79871-1.0956 1.3608-1.4834 0.56203-0.38781 1.2079-0.67383 1.9376-0.85804 0.72967-0.18422 1.4692-0.27632 2.2186-0.27632 0.9466 0 1.903 0.13584 2.8694 0.40719 0.96629 0.2715 1.7847 0.75626 2.4552 1.4543z" fill-rule="evenodd"/>
 </g>
</svg>
