<?xml version="1.0" encoding="UTF-8" standalone="no"?>
<svg
   xmlns:dc="http://purl.org/dc/elements/1.1/"
   xmlns:cc="http://creativecommons.org/ns#"
   xmlns:rdf="http://www.w3.org/1999/02/22-rdf-syntax-ns#"
   xmlns:svg="http://www.w3.org/2000/svg"
   xmlns="http://www.w3.org/2000/svg"
   xmlns:sodipodi="http://sodipodi.sourceforge.net/DTD/sodipodi-0.dtd"
   xmlns:inkscape="http://www.inkscape.org/namespaces/inkscape"
   inkscape:version="1.0beta2 (2b71d25, 2019-12-03)"
   height="219.23819"
   width="281.70657"
   sodipodi:docname="systems-development.svg"
   version="1.1"
   viewBox="0 0 281.70657 219.23819"
   id="Sistemas">
  <metadata
     id="metadata1187">
    <rdf:RDF>
      <cc:Work
         rdf:about="">
        <dc:format>image/svg+xml</dc:format>
        <dc:type
           rdf:resource="http://purl.org/dc/dcmitype/StillImage" />
        <dc:title></dc:title>
      </cc:Work>
    </rdf:RDF>
  </metadata>
  <sodipodi:namedview
     inkscape:current-layer="Sistemas"
     inkscape:window-maximized="0"
     inkscape:window-y="23"
     inkscape:window-x="0"
     inkscape:cy="103.94295"
     inkscape:cx="146.70657"
     inkscape:zoom="1.295"
     fit-margin-bottom="0"
     fit-margin-right="0"
     fit-margin-left="0"
     fit-margin-top="0"
     showgrid="false"
     id="namedview1185"
     inkscape:window-height="680"
     inkscape:window-width="1257"
     inkscape:pageshadow="2"
     inkscape:pageopacity="0"
     guidetolerance="10"
     gridtolerance="10"
     objecttolerance="10"
     borderopacity="1"
     inkscape:document-rotation="0"
     bordercolor="#666666"
     pagecolor="#ffffff" />
  <defs
     id="defs927">
    <style
       id="style925">.cls-1{fill:#e9e9e9;}.cls-13,.cls-2{fill:none;}.cls-2{stroke:#006ad2;stroke-miterlimit:10;stroke-width:0.5px;}.cls-3{fill:#d3d3d3;}.cls-4{fill:#e1e1e1;}.cls-5{fill:#006ad2;}.cls-11,.cls-15,.cls-16,.cls-17,.cls-18,.cls-6,.cls-8{fill:#fff;}.cls-6{opacity:0.1;}.cls-11,.cls-14,.cls-15,.cls-16,.cls-18,.cls-6,.cls-7,.cls-8{isolation:isolate;}.cls-15,.cls-7{opacity:0.2;}.cls-8{opacity:0.7;}.cls-9{fill:#1a2e35;}.cls-10{fill:#fcb373;}.cls-11{opacity:0.6;}.cls-12{fill:#ec873e;}.cls-13{stroke:#1a2e35;stroke-linecap:round;stroke-linejoin:round;stroke-width:0.56px;}.cls-14{opacity:0.4;}.cls-16{opacity:0.3;}.cls-18{opacity:0.5;}</style>
  </defs>
  <path
     inkscape:connector-curvature="0"
     id="path929"
     d="m 255.64657,175.40295 c 24.6,-23.46 30.47,-71.46 7.69,-104.759998 -19,-27.79 -54,-56.37 -98,-64.7000001 -44,-8.33 -82.699996,-8.32 -99.399996,2.69 -13.67,9.0000001 -7.32,21.5500001 -3,32.2100001 5.72,14.23 6.57,25.53 -17,46.2 -26.92,23.599998 -34.23,32.449998 -35.54,55.269998 -1.0999999,18.56 14.4,43.52 34.73,47.1 28.3,5 38.81,-8.17 66.499996,-17 22.21,-7.11 37.62,-3.79 57.76,9.84 20.14,13.63 50.16,27.61 86.26,-6.85 z"
     class="cls-1" />
  <path
     inkscape:connector-curvature="0"
     id="path931"
     d="m 253.05657,195.69295 c 25.35,-25.4 31.41,-77.27 7.93,-113.329998 -19.57,-30.06 -55.62,-61 -101,-70 -45.38,-9.0000001 -85.229996,-9.0000001 -102.439996,2.91 -14.09,9.74 -7.54,23.31 -3.12,34.84 5.9,15.4 6.76,27.62 -17.49,49.999998 -27.7399999,25.52 -35.2299999,35.11 -36.62999988,59.83 -1.13,20 14.83999988,47 35.78999988,50.91 29.17,5.39 40,-8.84 68.539996,-18.43 22.89,-7.7 38.77,-4.1 59.52,10.65 20.75,14.75 51.7,29.87 88.9,-7.38 z"
     class="cls-2" />
  <rect
     id="rect933"
     height="0.13"
     width="266.91"
     y="189.71294"
     x="14.796571"
     class="cls-3" />
  <rect
     id="rect935"
     height="0.13"
     width="17.68"
     y="198.30293"
     x="237.28656"
     class="cls-3" />
  <rect
     id="rect937"
     height="0.13"
     width="4.6399999"
     y="199.75294"
     x="186.96657"
     class="cls-3" />
  <rect
     id="rect939"
     height="0.13"
     width="10.25"
     y="193.35295"
     x="226.50656"
     class="cls-3" />
  <path
     inkscape:connector-curvature="0"
     id="path941"
     d="M 141.31657,165.94295 H 38.246574 a 3,3 0 0 1 -3.05,-3 V 17.942952 a 3,3 0 0 1 3.05,-3 H 141.31657 a 3,3 0 0 1 3,3 V 162.84295 a 3,3 0 0 1 -3,3.1 z M 38.246574,15.052952 a 2.92,2.92 0 0 0 -2.92,2.89 V 162.84295 a 2.92,2.92 0 0 0 2.92,2.91 H 141.31657 a 2.92,2.92 0 0 0 2.92,-2.91 V 17.942952 a 2.92,2.92 0 0 0 -2.92,-2.91 z"
     class="cls-3" />
  <path
     inkscape:connector-curvature="0"
     id="path943"
     d="m 256.78657,165.94295 h -103.08 a 3,3 0 0 1 -3.05,-3 V 17.942952 a 3,3 0 0 1 3.05,-3 h 103.08 a 3,3 0 0 1 3,3 V 162.84295 a 3,3 0 0 1 -3,3.1 z m -103.08,-150.889998 a 2.91,2.91 0 0 0 -2.91,2.91 V 162.86295 a 2.91,2.91 0 0 0 2.91,2.91 h 103.08 a 2.92,2.92 0 0 0 2.91,-2.91 V 17.942952 a 2.92,2.92 0 0 0 -2.91,-2.91 z"
     class="cls-3" />
  <path
     inkscape:connector-curvature="0"
     id="path945"
     d="m 251.37657,27.422952 v -2.29 l -1.18,-0.12 a 6.06,6.06 0 0 0 -0.88,-2.11 l 0.76,-0.92 -1.62,-1.62 -0.92,0.76 a 6,6 0 0 0 -2.12,-0.88 l -0.11,-1.18 h -2.29 l -0.11,1.18 a 6.11,6.11 0 0 0 -2.12,0.88 l -0.91,-0.76 -1.62,1.58 0.75,0.92 a 6.26,6.26 0 0 0 -0.88,2.11 l -1.18,0.12 v 2.29 l 1.18,0.11 a 6.31,6.31 0 0 0 0.88,2.12 l -0.75,0.91 1.62,1.62 0.91,-0.76 a 6.13,6.13 0 0 0 2.12,0.89 l 0.11,1.18 h 2.29 l 0.11,-1.19 a 5.85,5.85 0 0 0 2.12,-0.88 l 0.92,0.76 1.62,-1.62 -0.76,-0.91 a 6.11,6.11 0 0 0 0.88,-2.12 z m -7.21,2 a 3.1,3.1 0 1 1 3.1,-3.1 3.1,3.1 0 0 1 -3.1,3.05 z"
     class="cls-4" />
  <path
     inkscape:connector-curvature="0"
     id="path947"
     d="m 260.70657,33.942952 v -1.8 l -0.92,-0.09 a 4.94,4.94 0 0 0 -0.69,-1.65 l 0.59,-0.72 -1.27,-1.27 -0.71,0.53 a 4.9,4.9 0 0 0 -1.66,-0.69 l -0.08,-0.92 h -1.8 l -0.09,0.92 a 5.08,5.08 0 0 0 -1.66,0.69 l -0.71,-0.59 -1.27,1.27 0.59,0.72 a 4.74,4.74 0 0 0 -0.69,1.65 l -0.92,0.09 v 1.86 l 0.92,0.09 a 4.74,4.74 0 0 0 0.69,1.65 l -0.59,0.72 1.27,1.27 0.71,-0.59 a 5.08,5.08 0 0 0 1.66,0.69 l 0.09,0.92 h 1.8 l 0.08,-0.92 a 4.9,4.9 0 0 0 1.66,-0.69 l 0.72,0.59 1.27,-1.27 -0.59,-0.72 a 4.94,4.94 0 0 0 0.6,-1.74 z m -5.65,1.53 a 2.43,2.43 0 1 1 2.43,-2.43 2.43,2.43 0 0 1 -2.47,2.38 z"
     class="cls-4" />
  <path
     inkscape:connector-curvature="0"
     id="path949"
     d="m 251.37657,38.992952 v -1.51 l -0.78,-0.07 a 3.85,3.85 0 0 0 -0.58,-1.4 l 0.5,-0.6 -1.06,-1.07 -0.61,0.5 a 4.1,4.1 0 0 0 -1.39,-0.58 l -0.07,-0.77 h -1.51 l -0.08,0.77 a 4.27,4.27 0 0 0 -1.39,0.58 l -0.6,-0.5 -1.1,1.07 0.5,0.6 a 4.23,4.23 0 0 0 -0.58,1.4 l -0.78,0.07 v 1.51 l 0.78,0.07 a 4.1,4.1 0 0 0 0.58,1.39 l -0.5,0.61 1.07,1.06 0.6,-0.49 a 4,4 0 0 0 1.39,0.57 l 0.08,0.78 h 1.51 l 0.07,-0.78 a 3.89,3.89 0 0 0 1.39,-0.57 l 0.61,0.49 1.06,-1.06 -0.5,-0.61 a 3.73,3.73 0 0 0 0.58,-1.39 z m -4.75,1.29 a 2,2 0 1 1 2,-2.05 2,2 0 0 1 -2,2.05 z"
     class="cls-4" />
  <polygon
     transform="translate(-53.293426,-96.057048)"
     id="polygon951"
     points="106.96,285.28 110.17,285.28 110.17,205.51 122.11,285.28 125.54,285.28 110.59,185.44 110.17,185.5 110.17,182.25 106.96,182.25 106.96,185.49 106.53,185.44 91.54,285.28 95.03,285.28 106.96,206.01 "
     class="cls-4" />
  <polygon
     transform="translate(-53.293426,-96.057048)"
     id="polygon953"
     points="94.65,168.93 122.31,168.93 124.98,196.51 91.98,196.51 "
     class="cls-3" />
  <path
     inkscape:connector-curvature="0"
     id="path955"
     d="M 251.81657,35.022952 V 142.45295 a 5,5 0 0 1 -4.82,4.88 H 92.406574 a 4.71,4.71 0 0 1 -4.47,-4.88 V 35.022952 a 4.46,4.46 0 0 1 4.47,-4.6 H 246.99657 a 4.76,4.76 0 0 1 4.82,4.6 z"
     class="cls-5" />
  <path
     inkscape:connector-curvature="0"
     id="path957"
     d="m 251.81657,48.412952 v 93.999998 a 5,5 0 0 1 -4.82,4.88 H 92.406574 a 4.71,4.71 0 0 1 -4.47,-4.88 v -36.57 C 101.53657,79.712952 133.93657,75.452952 171.93657,90.742952 c 53.77,21.649998 76.64,-7.73 79.88,-42.33 z"
     class="cls-6" />
  <path
     inkscape:connector-curvature="0"
     id="path959"
     d="m 209.59657,135.07295 h -78.41 a 2.69,2.69 0 0 1 -2.68,-2.69 v 0 a 2.69,2.69 0 0 1 2.68,-2.69 h 78.41 a 2.69,2.69 0 0 1 2.69,2.69 v 0 a 2.69,2.69 0 0 1 -2.69,2.69 z"
     class="cls-7" />
  <path
     inkscape:connector-curvature="0"
     id="path961"
     d="m 131.18657,134.52295 a 2.14,2.14 0 1 1 0,-4.27 h 46.36 a 2.14,2.14 0 1 1 0,4.27 z"
     class="cls-5" />
  <path
     inkscape:connector-curvature="0"
     id="path963"
     d="m 131.18657,134.52295 a 2.14,2.14 0 1 1 0,-4.27 h 46.36 a 2.14,2.14 0 1 1 0,4.27 z"
     class="cls-8" />
  <g
     transform="translate(-53.293426,-96.057048)"
     data-name="&lt;Group&gt;"
     id="_Group_">
    <path
       inkscape:connector-curvature="0"
       id="path965"
       d="m 153.47,235 c 5,4 3.24,23.08 4.17,26 0.93,2.92 4.94,5.35 4.94,5.35 l -5.58,6.54 c 0,0 -4.67,-0.81 -8.21,-8.42 -3.54,-7.61 4.68,-29.47 4.68,-29.47 z"
       class="cls-9" />
    <path
       inkscape:connector-curvature="0"
       id="path967"
       d="m 153.47,235 c 5,4 3.24,23.08 4.17,26 0.93,2.92 4.94,5.35 4.94,5.35 l -5.58,6.54 c 0,0 -4.67,-0.81 -8.21,-8.42 -3.54,-7.61 4.68,-29.47 4.68,-29.47 z"
       class="cls-7" />
    <path
       inkscape:connector-curvature="0"
       id="path969"
       d="m 148.18,276.89 c 0,0 35.75,-10 40.24,2.57 4.49,12.57 -28,22.55 -45.93,23.16 -17.93,0.61 -25.29,-12 -20,-24 z"
       class="cls-5" />
    <path
       inkscape:connector-curvature="0"
       id="path971"
       d="m 148.18,276.89 c 0,0 35.75,-10 40.24,2.57 4.49,12.57 -28,22.55 -45.93,23.16 -17.93,0.61 -25.29,-12 -20,-24 z"
       class="cls-7" />
    <path
       inkscape:connector-curvature="0"
       id="path973"
       d="m 183.22,297.19 a 0.11,0.11 0 0 1 -0.13,0 0.1,0.1 0 0 1 0,-0.12 c 0.06,-0.19 0.65,-1.92 1.25,-2.1 a 0.39,0.39 0 0 1 0.36,0.1 0.61,0.61 0 0 1 0.21,0.58 1.53,1.53 0 0 1 -0.56,0.81 6.18,6.18 0 0 1 -1.13,0.73 z m 0.15,-0.33 a 2.52,2.52 0 0 0 1.28,-1.23 0.37,0.37 0 0 0 -0.15,-0.4 0.12,0.12 0 0 0 -0.14,0 l -0.14,0.08 a 5.3,5.3 0 0 0 -0.85,1.55 z"
       class="cls-5" />
    <path
       inkscape:connector-curvature="0"
       id="path975"
       d="m 183.19,297.22 a 0.09,0.09 0 0 1 -0.11,0 c -0.06,-0.05 -0.89,-1.09 -0.75,-1.8 a 0.64,0.64 0 0 1 0.28,-0.43 0.38,0.38 0 0 1 0.48,-0.05 c 0.44,0.31 0.38,1.71 0.17,2.24 v 0.05 z m -0.47,-2.06 a 0.47,0.47 0 0 0 -0.15,0.25 2.43,2.43 0 0 0 0.56,1.44 c 0.13,-0.59 0.09,-1.58 -0.16,-1.75 0,0 -0.08,-0.06 -0.21,0 v 0 z"
       class="cls-5" />
    <path
       inkscape:connector-curvature="0"
       id="path977"
       d="m 146.78,303.54 a 0.13,0.13 0 0 1 0.1,-0.09 0.11,0.11 0 0 1 0.1,0.06 c 0.1,0.18 0.92,1.82 0.63,2.37 a 0.36,0.36 0 0 1 -0.33,0.18 0.59,0.59 0 0 1 -0.56,-0.25 1.55,1.55 0 0 1 -0.19,-1 6.49,6.49 0 0 1 0.25,-1.27 z m 0.13,0.35 a 2.57,2.57 0 0 0 0,1.77 0.39,0.39 0 0 0 0.39,0.17 0.11,0.11 0 0 0 0.13,-0.07 0.42,0.42 0 0 0 0,-0.16 5.1,5.1 0 0 0 -0.52,-1.71 z"
       class="cls-5" />
    <polygon
       id="polygon979"
       points="146.07,298.33 148.06,301.79 151.14,300.11 158.67,295.99 155.44,291.47 149.11,296.11 "
       class="cls-10" />
    <path
       inkscape:connector-curvature="0"
       id="path981"
       d="m 149,301.69 -1.91,-4.21 a 0.46,0.46 0 0 0 -0.62,-0.22 l -2,1 c 0,0 -2.87,1.16 -3.23,2.09 -1,2.72 2.93,12.14 4.18,12.14 0.45,0 0.72,-0.7 0.78,-1.15 0.21,-1.43 0.24,-5 0.42,-6.2 a 5,5 0 0 1 2.27,-2.89 0.45,0.45 0 0 0 0.11,-0.56 z"
       class="cls-9" />
    <path
       inkscape:connector-curvature="0"
       id="path983"
       d="m 146.79,303.51 a 0.08,0.08 0 0 1 0.1,-0.06 c 0.07,0 1.4,0.13 1.81,0.72 a 0.71,0.71 0 0 1 0.11,0.51 0.39,0.39 0 0 1 -0.31,0.38 c -0.52,0.09 -1.48,-0.93 -1.71,-1.45 v -0.05 a 0.05,0.05 0 0 1 0,-0.05 z m 1.79,1.09 a 0.39,0.39 0 0 0 -0.08,-0.27 2.37,2.37 0 0 0 -1.41,-0.61 c 0.33,0.51 1.06,1.17 1.37,1.11 0,0 0.09,0 0.12,-0.17 z"
       class="cls-5" />
    <polygon
       id="polygon985"
       points="151.14,300.11 158.67,295.99 155.44,291.47 149.11,296.11 "
       class="cls-7" />
    <polygon
       id="polygon987"
       points="151.21,293.31 149.28,295.28 152.59,300.37 154.67,299.91 "
       class="cls-5" />
    <polygon
       id="polygon989"
       points="151.21,293.31 149.28,295.28 152.59,300.37 154.67,299.91 "
       class="cls-11" />
    <polygon
       id="polygon991"
       points="179.99,301.34 181.07,297.5 177.71,296.48 169.5,293.98 168.53,299.46 176.27,300.73 "
       class="cls-10" />
    <path
       inkscape:connector-curvature="0"
       id="path993"
       d="m 180.32,296.87 -1.68,4.31 a 0.46,0.46 0 0 0 0.28,0.6 l 2.16,0.77 c 0,0 2.83,1.23 3.74,0.84 2.68,-1.15 6.63,-10.6 5.76,-11.48 -0.32,-0.33 -1,0 -1.37,0.24 -1.16,0.85 -3.75,3.34 -4.73,4 a 4.9,4.9 0 0 1 -3.65,0.4 0.44,0.44 0 0 0 -0.51,0.32 z"
       class="cls-9" />
    <polygon
       id="polygon995"
       points="177.71,296.48 169.5,293.98 168.53,299.46 176.27,300.73 "
       class="cls-7" />
    <path
       inkscape:connector-curvature="0"
       id="path997"
       d="m 176.38,295.68 c 0,0 -32.18,-19 -43.07,-18.48 -10.89,0.52 -11.84,11.35 -7.35,17.35 4.49,6 12.79,7.45 12.79,7.45 0,0 -5.65,-8 -4.83,-10.23 0.82,-2.23 3.93,5.31 3.93,5.31 0,0 19.94,2.61 37.3,4.08 z"
       class="cls-5" />
    <polygon
       id="polygon999"
       points="172.81,301.04 175.56,301.04 176.89,295.19 175.1,293.99 "
       class="cls-5" />
    <polygon
       id="polygon1001"
       points="172.81,301.04 175.56,301.04 176.89,295.19 175.1,293.99 "
       class="cls-11" />
    <path
       inkscape:connector-curvature="0"
       id="path1003"
       d="m 152.37,280.22 c -5.82,-11.21 -4,-28.26 1.1,-45.23 -3.53,-3 -17.58,-4.93 -28.32,-1.81 0,0 -6.8,25.2 -6,52.72 z"
       class="cls-9" />
    <path
       inkscape:connector-curvature="0"
       id="path1005"
       d="m 140,237.74 c -4.68,0 -7.73,-4.91 -7.73,-4.91 6.14,-2.15 6.16,-8.63 6.16,-8.63 l 2.37,2.31 3.37,3.3 c -2.8,2 -1.48,3.7 -0.59,4.47 a 3.82,3.82 0 0 0 0.59,0.43 c 0,0 0.53,3.03 -4.17,3.03 z"
       class="cls-10" />
    <path
       inkscape:connector-curvature="0"
       id="path1007"
       d="m 143.59,234.28 c -5.74,0.64 -5.35,-8 -5.35,-8 a 14.06,14.06 0 0 1 2.57,0.19 l 3.37,3.3 c -2.8,2.02 -1.48,3.74 -0.59,4.51 z"
       class="cls-7" />
    <path
       inkscape:connector-curvature="0"
       id="path1009"
       d="m 148.08,217.75 c -2.18,0.9 -1.76,3.27 1.85,7.6 2.22,-1.92 3.42,-6.27 2.26,-7.67 -1.16,-1.4 -2.19,-0.68 -4.11,0.07 z"
       class="cls-9" />
    <path
       inkscape:connector-curvature="0"
       id="path1011"
       d="m 151.29,227.37 v 0 a 15.82,15.82 0 0 1 -0.69,1.7 c -2.15,4.37 -8.32,5.22 -11.05,0.89 v 0 c -1.81,-2.91 -1.13,-5.63 -0.38,-10.33 a 6.52,6.52 0 0 1 10.17,-4.37 c 3.54,2.47 3.33,8.09 1.95,12.11 z"
       class="cls-10" />
    <path
       inkscape:connector-curvature="0"
       id="path1013"
       d="m 145.78,222.44 c -0.08,0.37 0.05,0.73 0.3,0.78 0.25,0.05 0.51,-0.2 0.59,-0.58 0.08,-0.38 0,-0.73 -0.28,-0.79 -0.28,-0.06 -0.5,0.22 -0.61,0.59 z"
       class="cls-9" />
    <path
       inkscape:connector-curvature="0"
       id="path1015"
       d="m 150.08,223.4 c -0.09,0.38 0,0.73 0.29,0.79 0.29,0.06 0.52,-0.2 0.61,-0.59 0.09,-0.39 0,-0.73 -0.3,-0.78 -0.3,-0.05 -0.52,0.18 -0.6,0.58 z"
       class="cls-9" />
    <path
       inkscape:connector-curvature="0"
       id="path1017"
       d="m 148.64,223.27 a 13.73,13.73 0 0 0 1.08,3.64 2.26,2.26 0 0 1 -1.89,-0.07 z"
       class="cls-12" />
    <path
       inkscape:connector-curvature="0"
       id="path1019"
       d="m 144.91,220.82 a 0.31,0.31 0 0 1 -0.13,-0.06 0.25,0.25 0 0 1 0,-0.33 2.24,2.24 0 0 1 2,-0.51 0.22,0.22 0 0 1 0.16,0.27 v 0 a 0.24,0.24 0 0 1 -0.28,0.16 v 0 a 1.78,1.78 0 0 0 -1.59,0.42 0.25,0.25 0 0 1 -0.16,0.05 z"
       class="cls-9" />
    <path
       inkscape:connector-curvature="0"
       id="path1021"
       d="m 152.36,222.4 a 0.27,0.27 0 0 1 -0.18,-0.18 1.79,1.79 0 0 0 -1,-1.28 0.23,0.23 0 0 1 0.15,-0.43 2.25,2.25 0 0 1 1.31,1.61 0.22,0.22 0 0 1 -0.16,0.27 h -0.1 z"
       class="cls-9" />
    <path
       inkscape:connector-curvature="0"
       id="path1023"
       d="m 141.91,215.91 c 2,1.23 1.21,3.51 -3,7.2 -1.89,-2.24 -2.39,-6.74 -1,-7.92 1.39,-1.18 2.25,-0.35 4,0.72 z"
       class="cls-9" />
    <path
       inkscape:connector-curvature="0"
       id="path1025"
       d="m 136.09,222.83 a 4.52,4.52 0 0 0 1.51,3.11 c 1.2,1.05 2.47,0.14 2.72,-1.34 0.25,-1.48 -0.16,-3.5 -1.63,-4 a 2,2 0 0 0 -2.6,2.23 z"
       class="cls-10" />
    <path
       inkscape:connector-curvature="0"
       id="path1027"
       d="m 144.18,226.89 a 3.34,3.34 0 0 0 2.76,2.09"
       class="cls-13" />
    <path
       inkscape:connector-curvature="0"
       id="path1029"
       d="m 148.27,223.3 a 1.62,1.62 0 1 1 -1.62,-1.62 1.63,1.63 0 0 1 1.62,1.62 z"
       class="cls-13" />
    <path
       inkscape:connector-curvature="0"
       id="path1031"
       d="m 152.63,224.2 a 1.62,1.62 0 1 1 -1.62,-1.62 1.62,1.62 0 0 1 1.62,1.62 z"
       class="cls-13" />
    <path
       inkscape:connector-curvature="0"
       id="path1033"
       d="m 148.27,223.74 a 0.84,0.84 0 0 1 1.12,0.3"
       class="cls-13" />
    <path
       inkscape:connector-curvature="0"
       id="path1035"
       d="m 145.06,223 c 0,0 -4.64,-1.95 -5.5,-2.15"
       class="cls-13" />
    <path
       inkscape:connector-curvature="0"
       id="path1037"
       d="m 137.82,215.25 a 3.9,3.9 0 0 1 3.36,-4.39 c 3.85,-0.63 8.89,0.34 10.44,-0.33 a 2.44,2.44 0 0 1 -1.1,1.64 c 0,0 2.94,1.08 5.25,0.14 0,0 -1,2.79 -2.3,3.85 h 1.1 a 8.26,8.26 0 0 1 -4.85,2.14 c -2.67,0 -5.17,-3.63 -7.81,-2.39 a 3.27,3.27 0 0 1 -4.09,-0.66 z"
       class="cls-9" />
    <path
       inkscape:connector-curvature="0"
       id="path1039"
       d="m 151.29,227.37 v 0 a 15.82,15.82 0 0 1 -0.69,1.7 c -2.15,4.37 -8.32,5.22 -11.05,0.89 v 0 a 6.56,6.56 0 0 1 -0.29,-5.24 l 0.83,-2.66 0.59,-0.59 a 13.72,13.72 0 0 0 0.56,3.47 c 0.43,0.76 2.83,1 3.32,1.12 0.49,0.12 1.65,1.52 2.23,1.89 0.58,0.37 2.69,0.07 2.94,0.38 0.25,0.31 1.56,-0.96 1.56,-0.96 z"
       class="cls-14" />
    <path
       inkscape:connector-curvature="0"
       id="path1041"
       d="m 127.29,270.34 11.07,12.28 c 0,0 12.24,-0.27 27.1,7 0,0 15.94,-6.59 17.41,-12.06 1.47,-5.47 -33.48,-1.6 -33.48,-1.6 z"
       class="cls-7" />
    <path
       inkscape:connector-curvature="0"
       id="path1043"
       d="m 130.42,266.74 17.75,5.81 c 0,0 6.33,-1.4 7.47,-1.4 1.14,0 5.51,3.56 3,4.8 -2.51,1.24 -9.24,1.4 -10,1 -0.76,-0.4 -20.42,-5 -20.42,-5 z"
       class="cls-10" />
    <path
       inkscape:connector-curvature="0"
       id="path1045"
       d="m 125.15,233.18 c 4,-0.78 -3,23.69 -1.24,27.29 1.76,3.6 8.37,5.88 8.37,5.88 l -3.06,6.78 c 0,0 -9.08,-1.72 -14,-8 -4.92,-6.28 3.38,-30.68 9.93,-31.95 z"
       class="cls-9" />
    <path
       inkscape:connector-curvature="0"
       id="path1047"
       d="m 125.15,233.18 c 4,-0.78 -3,23.69 -1.24,27.29 1.76,3.6 8.37,5.88 8.37,5.88 l -3.06,6.78 c 0,0 -9.08,-1.72 -14,-8 -4.92,-6.28 3.38,-30.68 9.93,-31.95 z"
       class="cls-7" />
    <polygon
       id="polygon1049"
       points="131.75,273.81 134.69,267.07 132.28,265.81 128.55,273.13 "
       class="cls-9" />
    <polygon
       id="polygon1051"
       points="131.75,273.81 134.69,267.07 132.28,265.81 128.55,273.13 "
       class="cls-15" />
    <path
       inkscape:connector-curvature="0"
       id="path1053"
       d="m 139.62,276 v 1.16 a 1.52,1.52 0 0 0 1.45,1.51 H 184 a 1.61,1.61 0 0 0 1.55,-1.51 V 276 Z"
       class="cls-9" />
    <path
       inkscape:connector-curvature="0"
       id="path1055"
       d="m 139.62,276 v 1.16 a 1.52,1.52 0 0 0 1.45,1.51 H 184 a 1.61,1.61 0 0 0 1.55,-1.51 V 276 Z"
       class="cls-15" />
    <path
       inkscape:connector-curvature="0"
       id="path1057"
       d="m 155.64,276 v 1.16 a 1.52,1.52 0 0 0 1.45,1.51 H 184 a 1.61,1.61 0 0 0 1.55,-1.51 V 276 Z"
       class="cls-15" />
    <path
       inkscape:connector-curvature="0"
       id="path1059"
       d="m 157.09,277.55 h 28.35 A 2.31,2.31 0 0 0 187.5,276 l 6.5,-20.39 a 1.13,1.13 0 0 0 -1.09,-1.58 h -28.35 a 2.37,2.37 0 0 0 -2.06,1.58 L 156,276 a 1.11,1.11 0 0 0 1.09,1.55 z"
       class="cls-9" />
    <path
       inkscape:connector-curvature="0"
       id="path1061"
       d="m 157.09,277.55 h 28.35 A 2.31,2.31 0 0 0 187.5,276 l 6.5,-20.39 a 1.13,1.13 0 0 0 -1.09,-1.58 h -28.35 a 2.37,2.37 0 0 0 -2.06,1.58 L 156,276 a 1.11,1.11 0 0 0 1.09,1.55 z"
       class="cls-15" />
    <path
       inkscape:connector-curvature="0"
       id="path1063"
       d="m 158.15,277.55 h 27.29 A 2.31,2.31 0 0 0 187.5,276 l 6.5,-20.39 a 1.13,1.13 0 0 0 -1.09,-1.58 h -27.28 a 2.36,2.36 0 0 0 -2.06,1.58 l -6.5,20.39 a 1.11,1.11 0 0 0 1.08,1.55 z"
       class="cls-15" />
    <polygon
       id="polygon1065"
       points="175.47,269.13 179.39,266.35 177.7,263.57 173.77,266.35 "
       class="cls-15" />
  </g>
  <rect
     id="rect1068"
     rx="8.7399998"
     height="45.23"
     width="45.23"
     y="35.602955"
     x="103.47658"
     class="cls-7" />
  <rect
     id="rect1070"
     rx="7.3299999"
     height="37.900002"
     width="37.900002"
     y="30.632954"
     x="116.15657"
     class="cls-5" />
  <rect
     id="rect1072"
     rx="7.3299999"
     height="37.900002"
     width="37.900002"
     y="30.632954"
     x="116.15657"
     class="cls-16" />
  <path
     inkscape:connector-curvature="0"
     id="path1074"
     d="m 138.02657,45.212952 v -2.27 l -1.18,-0.11 a 6.11,6.11 0 0 0 -0.88,-2.12 l 0.76,-0.92 -1.62,-1.62 -0.92,0.76 a 6.17,6.17 0 0 0 -2.11,-0.88 l -0.11,-1.18 h -2.26 l -0.11,1.18 a 6.17,6.17 0 0 0 -2.11,0.88 l -0.92,-0.76 -1.62,1.62 0.76,0.92 a 6.11,6.11 0 0 0 -0.88,2.12 l -1.18,0.11 v 2.29 l 1.18,0.11 a 6,6 0 0 0 0.88,2.12 l -0.76,0.92 1.62,1.62 0.92,-0.76 a 6.17,6.17 0 0 0 2.11,0.88 l 0.11,1.18 h 2.3 l 0.11,-1.18 a 6.17,6.17 0 0 0 2.11,-0.88 l 0.92,0.76 1.62,-1.62 -0.76,-0.92 a 6,6 0 0 0 0.88,-2.12 z m -7.21,2 a 3.11,3.11 0 1 1 3.1,-3.1 3.1,3.1 0 0 1 -3.1,3.06 z"
     class="cls-17" />
  <path
     inkscape:connector-curvature="0"
     id="path1076"
     d="m 147.31657,51.682952 v -1.74 l -0.92,-0.09 a 4.68,4.68 0 0 0 -0.69,-1.66 l 0.59,-0.72 -1.27,-1.27 -0.71,0.6 a 4.68,4.68 0 0 0 -1.66,-0.69 l -0.09,-0.93 h -1.8 l -0.08,0.93 a 4.53,4.53 0 0 0 -1.66,0.69 l -0.72,-0.6 -1.27,1.27 0.59,0.72 a 5.08,5.08 0 0 0 -0.69,1.66 l -0.92,0.09 v 1.79 l 0.92,0.09 a 5.08,5.08 0 0 0 0.69,1.66 l -0.59,0.72 1.27,1.27 0.72,-0.6 a 4.53,4.53 0 0 0 1.66,0.69 l 0.08,0.93 h 1.8 l 0.09,-0.93 a 4.68,4.68 0 0 0 1.66,-0.69 l 0.71,0.6 1.27,-1.27 -0.59,-0.72 a 4.68,4.68 0 0 0 0.69,-1.66 z m -5.61,1.54 a 2.44,2.44 0 1 1 2.43,-2.44 2.43,2.43 0 0 1 -2.43,2.44 z"
     class="cls-17" />
  <path
     inkscape:connector-curvature="0"
     id="path1078"
     d="m 138.02657,56.782952 v -1.51 l -0.77,-0.07 a 4.1,4.1 0 0 0 -0.58,-1.39 l 0.5,-0.61 -1.07,-1.06 -0.6,0.5 a 3.85,3.85 0 0 0 -1.4,-0.58 l -0.07,-0.78 h -1.51 l -0.07,0.78 a 3.85,3.85 0 0 0 -1.4,0.58 l -0.6,-0.5 -1.06,1.06 0.49,0.61 a 4.1,4.1 0 0 0 -0.58,1.39 l -0.77,0.07 v 1.51 l 0.77,0.07 a 4.23,4.23 0 0 0 0.58,1.4 l -0.49,0.6 1.06,1.07 0.6,-0.5 a 4.23,4.23 0 0 0 1.4,0.58 l 0.07,0.78 h 1.51 l 0.07,-0.78 a 4.23,4.23 0 0 0 1.4,-0.58 l 0.6,0.5 1.07,-1.07 -0.5,-0.6 a 4.23,4.23 0 0 0 0.58,-1.4 z m -4.74,1.29 a 2,2 0 1 1 2,-2 2,2 0 0 1 -2,2 z"
     class="cls-17" />
  <rect
     id="rect1080"
     rx="7.3299999"
     height="37.900002"
     width="37.900002"
     y="30.632954"
     x="117.76657"
     class="cls-15" />
  <rect
     id="rect1082"
     rx="8.0799999"
     height="41.810001"
     width="41.810001"
     y="79.502953"
     x="171.73657"
     class="cls-7" />
  <rect
     id="rect1084"
     rx="6.77"
     height="35.040001"
     width="35.040001"
     y="77.272957"
     x="182.24657"
     class="cls-5" />
  <rect
     id="rect1086"
     rx="6.77"
     height="35.040001"
     width="35.040001"
     y="77.272957"
     x="182.24657"
     class="cls-15" />
  <path
     inkscape:connector-curvature="0"
     id="path1088"
     d="m 201.09657,100.41295 a 1.27,1.27 0 1 1 -1.26,-1.259998 1.25,1.25 0 0 1 1.26,1.259998 z"
     class="cls-17" />
  <path
     inkscape:connector-curvature="0"
     id="path1090"
     d="m 199.70657,87.792952 a 12.56,12.56 0 0 0 -12.56,12.559998 h 10 a 2.37,2.37 0 0 1 2.53,-2.479998 2.7,2.7 0 0 1 0.76,0.15 l 4.7,-5.46 -3.32,6.46 a 2.42,2.42 0 0 1 0.39,1.329998 h 10 a 12.56,12.56 0 0 0 -12.5,-12.559998 z"
     class="cls-17" />
  <rect
     id="rect1092"
     rx="6.77"
     height="35.040001"
     width="35.040001"
     y="77.272957"
     x="183.72658"
     class="cls-15" />
  <rect
     id="rect1094"
     rx="7.0900002"
     height="36.689999"
     width="36.689999"
     y="46.082951"
     x="186.52658"
     class="cls-7" />
  <rect
     id="rect1096"
     rx="5.9400001"
     height="30.74"
     width="30.74"
     y="42.852955"
     x="196.36658"
     class="cls-5" />
  <rect
     id="rect1098"
     rx="5.9400001"
     height="30.74"
     width="30.74"
     y="42.852955"
     x="196.36658"
     class="cls-6" />
  <path
     inkscape:connector-curvature="0"
     id="path1100"
     d="m 220.31657,50.652952 a 1,1 0 0 0 -1,-1 h -15.07 a 1,1 0 0 0 -1,1 v 3.29 a 1,1 0 0 0 1,1 h 15.06 a 1,1 0 0 0 1,-1 z m -5,1.8 h -0.87 v -0.87 h 0.87 z m 2.31,0.43 a 0.87,0.87 0 1 1 0,-1.73 0.87,0.87 0 0 1 0,1.73 z"
     class="cls-17" />
  <path
     inkscape:connector-curvature="0"
     id="path1102"
     d="m 220.31657,56.522952 a 1,1 0 0 0 -1,-1 h -15.07 a 1,1 0 0 0 -1,1 v 3.32 a 1,1 0 0 0 1,1 h 15.06 a 1,1 0 0 0 1,-1 z m -5,2.13 h -0.87 v -0.86 h 0.87 z m 2.31,0.44 a 0.87,0.87 0 1 1 0.86,-0.87 0.87,0.87 0 0 1 -0.78,0.87 z"
     class="cls-17" />
  <path
     inkscape:connector-curvature="0"
     id="path1104"
     d="m 220.31657,62.392952 a 1,1 0 0 0 -1,-1 h -15.07 a 1,1 0 0 0 -1,1 v 3.32 a 1,1 0 0 0 1,1 h 15.06 a 1,1 0 0 0 1,-1 z m -5,2.47 h -0.87 v -0.87 h 0.87 z m 2.31,0.43 a 0.87,0.87 0 1 1 0.86,-0.86 0.87,0.87 0 0 1 -0.78,0.86 z"
     class="cls-17" />
  <rect
     id="rect1106"
     rx="5.9400001"
     height="30.74"
     width="30.74"
     y="42.852955"
     x="197.66658"
     class="cls-15" />
  <rect
     id="rect1108"
     rx="8.7399998"
     height="45.23"
     width="45.23"
     y="74.502953"
     x="126.69658"
     class="cls-7" />
  <rect
     id="rect1110"
     rx="7.3299999"
     height="37.900002"
     width="37.900002"
     y="71.292961"
     x="137.30658"
     class="cls-5" />
  <rect
     id="rect1112"
     rx="7.3299999"
     height="37.900002"
     width="37.900002"
     y="71.292961"
     x="137.30658"
     class="cls-18" />
  <path
     inkscape:connector-curvature="0"
     id="path1114"
     d="m 145.76657,100.65295 v 0 a 3,3 0 0 1 0,-4.189998 l 6.92,-6.91 a 1.67,1.67 0 0 1 2.36,0 l 1.82,1.83 a 1.65,1.65 0 0 1 0,2.36 l -6.91,6.909998 a 3,3 0 0 1 -4.19,0 z"
     class="cls-17" />
  <polygon
     transform="translate(-53.293426,-96.057048)"
     id="polygon1116"
     points="218.25,176.16 219.95,175.82 219.61,177.52 211.8,185.33 210.44,183.97 "
     class="cls-17" />
  <path
     inkscape:connector-curvature="0"
     id="path1118"
     d="m 157.70657,91.092952 -2.4,-2.41 a 0.54,0.54 0 0 1 0,-0.78 v 0 a 0.56,0.56 0 0 1 0.78,0 l 2.4,2.41 a 0.54,0.54 0 0 1 0,0.78 v 0 a 0.56,0.56 0 0 1 -0.78,0 z"
     class="cls-17" />
  <path
     inkscape:connector-curvature="0"
     id="path1120"
     d="m 154.50657,86.482952 -3.3,-3.3 a 3.62,3.62 0 0 0 -2,-4.22 v 2.54 a 1.09,1.09 0 0 1 -1.08,1.08 1.07,1.07 0 0 1 -1.08,-1.06 v -2.51 a 3.5,3.5 0 0 0 -2.19,3.07 3.27,3.27 0 0 0 2.85,3.18 2.82,2.82 0 0 0 1.59,-0.22 l 3.32,3.33 z"
     class="cls-17" />
  <path
     inkscape:connector-curvature="0"
     id="path1122"
     d="m 165.46657,99.012952 v 2.519998 a 3.53,3.53 0 0 0 2.19,-3.069998 3.29,3.29 0 0 0 -2.78,-3.26 2.56,2.56 0 0 0 -1.52,0.16 l -3.45,-3.42 -1.89,1.88 3.43,3.44 a 3.16,3.16 0 0 0 1.9,4.279998 v -2.499998 a 1.06,1.06 0 1 1 2.12,0 z"
     class="cls-17" />
  <rect
     id="rect1124"
     rx="7.3299999"
     height="37.900002"
     width="37.900002"
     y="71.292961"
     x="138.90657"
     class="cls-15" />
  <rect
     id="rect1126"
     transform="scale(-1)"
     rx="8.8299999"
     height="45.68"
     width="45.68"
     y="-64.442955"
     x="-204.29657"
     class="cls-5" />
  <rect
     id="rect1128"
     rx="10.54"
     height="54.52"
     width="54.52"
     y="26.012951"
     x="148.07657"
     class="cls-7" />
  <rect
     id="rect1130"
     transform="scale(-1)"
     rx="8.8299999"
     height="45.68"
     width="45.68"
     y="-64.442955"
     x="-204.29657"
     class="cls-18" />
  <path
     inkscape:connector-curvature="0"
     id="path1132"
     d="m 181.44657,27.442952 -14,5.49 c 0,0 1.77,19.22 14,22.82 12.23,-3.6 14,-22.82 14,-22.82 z m -0.36,18.6 a 0.94,0.94 0 0 1 -0.76,0.4 v 0 a 1,1 0 0 1 -0.78,-0.41 l -4.9,-6.76 a 1,1 0 1 1 1.56,-1.14 l 4.14,5.7 6.78,-8.93 a 1,1 0 0 1 1.35,-0.19 1,1 0 0 1 0.18,1.41 z"
     class="cls-17" />
  <rect
     id="rect1134"
     transform="scale(-1)"
     rx="8.8299999"
     height="45.68"
     width="45.68"
     y="-64.442955"
     x="-206.23657"
     class="cls-15" />
  <rect
     id="rect1136"
     height="30.709999"
     width="45.509998"
     y="137.68295"
     x="200.46657"
     class="cls-5" />
  <rect
     id="rect1138"
     height="30.709999"
     width="45.509998"
     y="137.68295"
     x="200.46657"
     class="cls-8" />
  <rect
     id="rect1140"
     height="27.32"
     width="43.700001"
     y="140.05295"
     x="201.30658"
     class="cls-9" />
  <rect
     id="rect1142"
     height="0.80000001"
     width="35.93"
     y="144.28294"
     x="203.30658"
     class="cls-4" />
  <rect
     id="rect1144"
     height="0.80000001"
     width="30.59"
     y="146.55295"
     x="203.30658"
     class="cls-4" />
  <rect
     id="rect1146"
     height="0.80000001"
     width="35.93"
     y="148.82295"
     x="203.30658"
     class="cls-4" />
  <rect
     id="rect1148"
     height="0.80000001"
     width="30.59"
     y="151.09294"
     x="203.30658"
     class="cls-4" />
  <rect
     id="rect1150"
     height="0.80000001"
     width="3.8800001"
     y="153.35295"
     x="203.30658"
     class="cls-4" />
  <rect
     id="rect1152"
     height="0.80000001"
     width="19.91"
     y="155.62294"
     x="203.30658"
     class="cls-4" />
  <rect
     id="rect1154"
     height="0.80000001"
     width="30.59"
     y="157.89294"
     x="203.30658"
     class="cls-4" />
  <rect
     id="rect1156"
     height="0.80000001"
     width="3.8800001"
     y="160.16295"
     x="203.30658"
     class="cls-4" />
  <rect
     id="rect1158"
     height="0.80000001"
     width="3.8800001"
     y="162.43294"
     x="203.30658"
     class="cls-4" />
  <rect
     id="rect1160"
     height="30.709999"
     width="45.509998"
     y="73.792961"
     x="69.236572"
     class="cls-5" />
  <rect
     id="rect1162"
     height="30.709999"
     width="45.509998"
     y="73.792961"
     x="69.236572"
     class="cls-8" />
  <rect
     id="rect1164"
     height="27.32"
     width="43.700001"
     y="76.152962"
     x="70.086571"
     class="cls-9" />
  <rect
     id="rect1166"
     height="0.80000001"
     width="35.93"
     y="80.392952"
     x="72.086571"
     class="cls-4" />
  <rect
     id="rect1168"
     height="0.80000001"
     width="30.59"
     y="82.662956"
     x="72.086571"
     class="cls-4" />
  <rect
     id="rect1170"
     height="0.80000001"
     width="35.93"
     y="84.922951"
     x="72.086571"
     class="cls-4" />
  <rect
     id="rect1172"
     height="0.80000001"
     width="30.59"
     y="87.192955"
     x="72.086571"
     class="cls-4" />
  <rect
     id="rect1174"
     height="0.80000001"
     width="3.8800001"
     y="89.462959"
     x="72.086571"
     class="cls-4" />
  <rect
     id="rect1176"
     height="0.80000001"
     width="19.91"
     y="91.732948"
     x="72.086571"
     class="cls-4" />
  <rect
     id="rect1178"
     height="0.80000001"
     width="30.59"
     y="94.002953"
     x="72.086571"
     class="cls-4" />
  <rect
     id="rect1180"
     height="0.80000001"
     width="3.8800001"
     y="96.272957"
     x="72.086571"
     class="cls-4" />
  <rect
     id="rect1182"
     height="0.80000001"
     width="3.8800001"
     y="98.542961"
     x="72.086571"
     class="cls-4" />
</svg>
